<svg xmlns="http://www.w3.org/2000/svg" width="300" height="300" fill="none"><g clip-path="url(#clip0)"><path d="M212.266 237.432l-27.617-41.691c8.066-.745 18.05-4.023 25.599-14.189a9.311 9.311 0 001.368-8.427 9.33 9.33 0 00-6.091-6.011 90.465 90.465 0 01-13.466-5.398c-9.037-4.495-17.625-10.76-23.58-18.968a44.212 44.212 0 01-4.255-7.172c-2.915-6.214-4.484-13.979-3.926-20.829.053-.646 1.202-6.517 1.034-6.618l15.505 9.275c.034.021.069.041.104.06 7.133 3.996 13.113 11.278 16.873 16.683a11.534 11.534 0 009.474 4.955 11.51 11.51 0 007.852-3.096c3.955-3.689 4.808-9.725 2.027-14.349-4.62-7.685-10.262-13.836-17.757-19.359a4.206 4.206 0 00-5.965 1.009c-1.3 1.894-.727 4.501 1.119 5.868 6.587 4.877 11.34 10.07 15.394 16.815.747 1.242.513 2.868-.555 3.865a3.077 3.077 0 01-2.447.818 3.099 3.099 0 01-2.237-1.329c-4.256-6.117-11.111-14.406-19.613-19.188l-17.759-10.623c.479-2.064.919-4.15 1.249-6.263a168.073 168.073 0 006.376 3.866c.98.566 1.947 1.121 2.904 1.67 1.999 1.144 4.622.603 5.826-1.36a4.206 4.206 0 00-1.492-5.852c-.996-.57-2.006-1.15-3.029-1.74-4.377-2.53-7.672-4.668-10.134-6.406a31.142 31.142 0 00-.653-4.241c-1.272-5.572-1.027-9.534-.556-11.973 10.621-2.173 19.061-10.396 21.55-20.9 8.889-.458 15.89-8.178 15.17-17.327-.605-7.688-6.748-13.945-14.424-14.686a15.97 15.97 0 00-11.262 3.19 27.772 27.772 0 00-18.071-5.474c-14.034.71-25.477 11.973-26.397 25.995-.6 9.139 3.235 17.418 9.551 22.915-.96.783-1.975 1.46-2.95 1.91-2.25 1.04-4.664 1.802-7.206 2.581-10.703-8.398-22.442-17.346-22.596-17.463-6.511-4.946-11.424-12.986-14.4-18.86a11.539 11.539 0 00-7.494-5.985 11.512 11.512 0 00-9.407 1.745c-4.428 3.106-6.109 8.965-3.995 13.93 7.312 17.184 30.568 34.803 32.685 36.381l4.032 3.436c-1.222 1.805-2.187 3.725-2.831 5.72a20.555 20.555 0 00-.297 11.481c.528 1.974 1.34 3.783 2.414 5.376 1.955 2.897 4.877 4.839 7.561 6.523-.974 4.304-1.939 12.337.736 22.431.168 1.141 1.533 12.109-5.891 25.25-1.136 2.01-.608 4.635 1.363 5.837a4.205 4.205 0 005.85-1.505c6.262-10.988 7.308-20.888 7.278-26.457 5.015-.338 10.016-.921 14.961-1.829 2.317-.426 4.622-.923 6.907-1.504 2.101-.534 4.216-1.385 6.308-1.819.214 1.502 1.219 5.494 2.299 8.063 4.079 9.701 10.714 17.251 18.747 23.967l2.452 2.051c9.562 6.851 19.715 10.818 26.548 12.94a.878.878 0 01.59.588.857.857 0 01-.125.804c-11.223 15.114-29.892 10.304-30.668 10.096a4.201 4.201 0 00-4.256 1.254c-16.377 18.354-35.924 7.78-36.734 7.328a4.2 4.2 0 00-3.779-.187c-20.278 8.988-34.705 2.619-41.5-1.976a.84.84 0 01-.375-.663.914.914 0 01.313-.758l17.785-15.675a4.207 4.207 0 00-5.561-6.311l-17.785 15.675a9.28 9.28 0 00-3.145 7.606 9.216 9.216 0 004.055 7.093 46.742 46.742 0 0026.249 7.991c1.4 0 2.843-.064 4.324-.193l1.611 55.86c-3.935 6.341-7.263 19.743 4.229 32.954a9.905 9.905 0 007.472 3.418 9.901 9.901 0 007.47-3.418c11.497-13.216 8.163-26.623 4.226-32.961l1.652-57.282c1.331.244 2.749.437 4.238.548 4.314.322 9.664-.012 15.334-2.092l34.518 46.101c.149 1.986.688 5.546 2.577 9.461 2.531 5.245 8.026 12.106 19.84 15.009.789.193 1.588.289 2.383.289a9.874 9.874 0 005.693-1.8 9.907 9.907 0 004.138-7.096c1.786-17.425-8.663-26.465-15.532-29.378zM184.554 22.657c4.215 0 7.644 3.429 7.644 7.644 0 3.7-2.643 6.793-6.14 7.493a27.74 27.74 0 00-5.181-14.18 7.556 7.556 0 013.677-.957zm-30.797-1.718c.061-.015.124-.03.186-.043 11.968-2.702 23.79 6.678 23.79 19.005 0 .376-.013.751-.034 1.126l-.006.078c-6.045-1.09-10.68-2.903-14.389-5.602-4.221-3.072-7.654-7.533-10.872-14.206.437-.136.879-.253 1.325-.358zm-44.045 47.575c-.234-.173-23.465-17.489-30.066-33a3.12 3.12 0 011.085-3.752 3.036 3.036 0 011.768-.566c.31 0 .575.046.769.094.517.13 1.467.513 2.032 1.626 3.374 6.662 9.03 15.845 16.811 21.754.13.099 8.991 6.853 18.297 14.103a31.084 31.084 0 00-6.019 3.712l-4.45-3.791a3.942 3.942 0 00-.227-.18zm44.685 32.294c-1.46 6.026-2.966 12.236-2.549 18.796-7.998 2.862-17.461 4.649-28.217 5.327-1.422-7.401-.545-13.038.181-15.931a7.32 7.32 0 00-3.241-8.007l-.052-.032c-2.23-1.394-4.537-2.835-5.637-4.465-.551-.817-.975-1.774-1.261-2.843-.584-2.18-.521-4.57.176-6.728 1.474-4.57 5.632-8.666 11.123-10.958 2.13-.89 4.371-1.575 6.743-2.301 2.911-.89 5.922-1.812 8.867-3.173 2.19-1.01 4.664-2.756 6.817-4.906a27.672 27.672 0 007.909 2.055c-.4 3.366-.342 7.833.937 13.437 1.448 6.342-.128 12.844-1.796 19.729zm-15.643-60.906c0-5.696 2.456-10.828 6.365-14.395 2.873 5.87 6.932 12.21 13.237 16.797 4.579 3.332 10.068 5.574 17.001 6.917-3.31 6.055-9.74 10.172-17.113 10.172-10.747 0-19.49-8.744-19.49-19.491zm-9.106 163.594c.325.145.688.301 1.085.463l-1.636 56.744h-6.738l-1.566-54.29a63.676 63.676 0 008.855-2.917zm-2.793 87.617c-.582.669-1.668.67-2.251 0-4.59-5.276-6.498-10.815-5.672-16.462a18.725 18.725 0 011.736-5.537h10.124a18.749 18.749 0 011.683 5.199c.955 5.763-.935 11.415-5.62 16.8zm71.383-47.428l-31.969-42.698c2.31-1.524 4.621-3.399 6.888-5.697.374.065.79.13 1.233.193l29.357 44.32-5.509 3.882zm21.193 22.268c-.046.441-.27.835-.616 1.079a1.5 1.5 0 01-1.223.218c-6.792-1.67-11.543-5.098-14.12-10.19a18.7 18.7 0 01-1.771-5.525l8.275-5.832a18.656 18.656 0 014.609 3.525c3.929 4.141 5.559 9.768 4.846 16.725z" fill="#fff"/></g><defs><clipPath id="clip0"><path fill="#fff" d="M0 0h300v300H0z"/></clipPath></defs></svg>