<svg xmlns="http://www.w3.org/2000/svg" width="300" height="300" fill="none"><g clip-path="url(#clip0)" fill="#fff"><path d="M68.656 242.559h-36.89a4.611 4.611 0 00-4.612 4.611v36.89a4.611 4.611 0 004.612 4.611h36.89a4.611 4.611 0 004.611-4.611v-36.89a4.61 4.61 0 00-4.611-4.611zm-4.612 36.89H36.377v-27.668h27.667v27.668zm73.786-50.726h-36.891a4.61 4.61 0 00-4.61 4.611v50.724a4.61 4.61 0 004.61 4.611h36.891a4.611 4.611 0 004.611-4.611v-50.724a4.61 4.61 0 00-4.611-4.611zm-4.612 50.724h-27.667v-41.502h27.667v41.502zm73.778-69.174h-36.891a4.612 4.612 0 00-4.611 4.612v69.169a4.612 4.612 0 004.611 4.611h36.891a4.612 4.612 0 004.611-4.611v-69.169a4.611 4.611 0 00-4.611-4.612zm-4.612 69.17h-27.667v-59.947h27.667v59.947zm73.78-110.662h-36.891a4.612 4.612 0 00-4.611 4.612v110.67a4.611 4.611 0 004.611 4.611h36.891a4.611 4.611 0 004.611-4.611v-110.67a4.61 4.61 0 00-4.611-4.612zm-4.612 110.671h-27.667V178.004h27.667v101.448zm-13.829-225.96h-10.984l.552-1.105c3.502-7.004.663-15.52-6.341-19.021-6.626-3.313-14.685-.966-18.497 5.385l-6.086 10.145-6.086-10.145c-4.03-6.713-12.74-8.888-19.453-4.858-6.35 3.812-8.695 11.87-5.385 18.494l.553 1.105h-11.277a4.612 4.612 0 00-4.612 4.612V81.16a4.612 4.612 0 004.612 4.611h4.611v41.502a4.612 4.612 0 004.611 4.611h64.558a4.611 4.611 0 004.611-4.611V85.771h4.612a4.612 4.612 0 004.611-4.611V58.104a4.61 4.61 0 00-4.61-4.612zm-55.336 69.169h-13.833v-36.89h13.833v36.89zm0-46.112h-23.056V62.715h23.056v13.834zm-6.078-23.057l-2.615-5.23a4.955 4.955 0 018.68-4.765l5.995 9.995h-12.06zm24.524 69.169h-9.223v-36.89h9.223v36.89zm0-46.112h-9.223V62.715h9.223v13.834zm9.529-33.052a4.954 4.954 0 018.68 4.765l-2.615 5.23h-12.062l5.997-9.995zm13.527 79.164h-13.834v-36.89h13.834v36.89zm9.223-46.112h-23.057V62.715h23.057v13.834zm-89.189-42.811a74.129 74.129 0 00-11.691 15.29l7.994 4.603a64.769 64.769 0 0110.235-13.386l-6.538-6.507zm52.298 116.598a64.72 64.72 0 01-16.639-2.164l-2.373 8.912a74.04 74.04 0 0019.012 2.474h.07l-.07-9.222zM216.217 12h-.209l.209 9.223a64.71 64.71 0 0116.513 2.13l2.355-8.917A73.947 73.947 0 00216.217 12zm-45.582 119.492l-6.512 6.53a73.985 73.985 0 0015.279 11.706l4.607-7.988a64.89 64.89 0 01-13.374-10.248zM144.89 66.824a73.27 73.27 0 00-2.447 18.711l-.009.37 9.224-.14a64.679 64.679 0 012.149-16.576l-8.917-2.365zm8.99 35.789l-8.907 2.396a73.361 73.361 0 007.405 17.776l7.976-4.633a64.015 64.015 0 01-6.474-15.539zm94.656 39.059a64.205 64.205 0 01-15.548 6.46l2.391 8.907a73.476 73.476 0 0017.781-7.388l-4.624-7.979zm23.615-23.645a64.74 64.74 0 01-10.262 13.366l6.525 6.52a74.117 74.117 0 0011.722-15.27l-7.985-4.616zM196.926 14.55a73.332 73.332 0 00-17.77 7.424l4.639 7.97a64.114 64.114 0 0115.536-6.49l-2.405-8.903zm83.058 34.095l-7.966 4.646a64.22 64.22 0 016.507 15.53l8.898-2.418a73.37 73.37 0 00-7.439-17.759zm.793 37.138a64.738 64.738 0 01-2.181 16.704l8.912 2.378A74.054 74.054 0 00290 85.783v-.28l-9.223.28zM252.901 21.75l-4.589 7.998a64.765 64.765 0 0113.397 10.22l6.498-6.544a73.971 73.971 0 00-15.306-11.674zM152.42 155.002l-27.667-4.611-1.518 9.096 17.04 2.839-27.041 20.28H68.659c-.817 0-1.619.216-2.324.628L11 215.513l4.648 7.966 54.259-31.65h44.865a4.622 4.622 0 002.768-.924l27.682-20.761-2.719 16.315 9.097 1.518 4.611-27.668a4.614 4.614 0 00-3.791-5.307z"/></g><defs><clipPath id="clip0"><path fill="#fff" d="M0 0h300v300H0z"/></clipPath></defs></svg>