<svg xmlns="http://www.w3.org/2000/svg" width="300" height="300" fill="none"><path d="M268.365 234.811H30.797A19.818 19.818 0 0111 215.014V72.473h7.919v142.541a11.88 11.88 0 0011.878 11.878h237.568a11.88 11.88 0 0011.878-11.878V40.797a11.877 11.877 0 00-11.878-11.878H30.797A11.879 11.879 0 0018.92 40.797v31.676H11V40.797A19.822 19.822 0 0130.797 21h237.568a19.822 19.822 0 0119.797 19.797v174.217a19.82 19.82 0 01-19.797 19.797zm-62.874 44.739H86.707a3.958 3.958 0 01-3.959-3.96c0-19.797 20.862-19.797 27.716-19.797h71.271c6.853 0 27.716 0 27.716 19.797a3.96 3.96 0 01-3.96 3.96zm-114.345-7.919h109.907c-1.382-4.874-6.161-7.919-19.318-7.919h-71.271c-13.157 0-17.936 3.045-19.318 7.919z" fill="#fff"/><path d="M177.766 260.449h-63.351a3.956 3.956 0 01-2.8-1.16 3.955 3.955 0 01-1.16-2.799v-23.757a3.96 3.96 0 013.96-3.96h63.351a3.963 3.963 0 013.959 3.96v23.757a3.959 3.959 0 01-3.959 3.959zm-59.392-7.919h55.432v-15.838h-55.432v15.838zM11.482 203.613h269.244v7.919H11.482v-7.919zm118.776 15.825h31.675v7.918h-31.675v-7.918z" fill="#fff"/></svg>