<svg xmlns="http://www.w3.org/2000/svg" width="300" height="300" fill="none"><g clip-path="url(#clip0)"><path d="M255.489 119.346c8.444-6.038 13.987-16.011 13.895-27.201-.15-18.306-15.076-32.99-33.381-32.84-18.306.15-32.99 15.076-32.84 33.381.091 11.19 5.739 21.072 14.338 26.97-7.267 2.585-13.892 6.541-19.474 11.637-7.801-6.536-16.966-11.511-26.976-14.413 12.048-7.444 20.087-20.881 19.963-36.088-.19-23.183-19.108-41.795-42.291-41.605-23.183.19-41.794 19.165-41.605 42.291.125 15.207 8.325 28.511 20.551 35.757-9.846 3.065-18.814 8.131-26.451 14.678a57.838 57.838 0 00-19.43-11.089c8.444-6.037 13.986-16.011 13.895-27.2-.15-18.306-15.076-32.99-33.382-32.84-18.306.15-32.99 15.075-32.84 33.381.092 11.19 5.74 21.072 14.338 26.97-22.717 8.048-38.894 29.815-38.686 55.237l.03 3.787c.002.115.117.229.232.228l70.18-.574a77.182 77.182 0 00-.551 9.703l.032 3.902c.138 16.871 13.907 30.416 30.778 30.278l88.946-.727c16.871-.138 30.416-13.907 30.278-30.778l-.032-3.903a77.14 77.14 0 00-.71-9.692l70.64-.578c.115-.001.228-.117.227-.232l-.031-3.787c-.323-25.478-16.797-46.978-39.643-54.653zm-43.145-26.792c-.108-13.198 10.535-24.017 23.733-24.125 13.199-.108 24.017 10.535 24.125 23.733.107 13.027-10.308 23.729-23.274 24.122l-.459.003-.459.004c-13.028-.123-23.559-10.653-23.666-23.737zm-96.159-11.15c-.148-18.076 14.422-32.887 32.498-33.034 18.076-.148 32.887 14.422 33.035 32.498.143 17.445-13.455 31.846-30.605 32.961l-1.894.016-1.894.015c-17.166-.835-30.997-15.011-31.14-32.456zM38.47 93.977C38.362 80.778 49.005 69.96 62.203 69.85c13.198-.108 24.017 10.536 24.125 23.734.107 13.026-10.308 23.728-23.274 24.121l-.46.004-.458.004c-12.971-.124-23.56-10.654-23.666-23.737zm38.617 76.584l-62.72.513c2.381-24.467 22.883-43.802 47.959-44.18l.344-.003.344-.002c11.937-.041 22.876 4.289 31.37 11.393a75.34 75.34 0 00-17.297 32.279zm138.655 21.706c.096 11.763-9.408 21.425-21.172 21.521l-88.946.728c-11.763.096-21.425-9.409-21.521-21.172l-.032-3.903c-.292-35.635 27.932-65.019 63.33-66.342.632.052 1.32.047 1.951.042.632-.005 1.32-.011 1.951-.074 35.415.744 64.116 29.662 64.407 65.298l.032 3.902zm6.642-22.895c-3.255-12.082-9.369-22.879-17.649-31.764 8.433-7.414 19.415-11.923 31.465-12.136l.344-.003.344-.003c25.079-.033 45.894 18.964 48.676 43.389l-63.18.517z" fill="#fff"/></g><defs><clipPath id="clip0"><path fill="#fff" d="M0 0h300v300H0z"/></clipPath></defs></svg>