<svg xmlns="http://www.w3.org/2000/svg" width="300" height="300" fill="none"><path d="M288.573 218.244l-22.561-15.884V43H31.545v159.483l-20.678 15.878.003.004A4.758 4.758 0 009 222.147v30.079A4.774 4.774 0 0013.774 257h272.051a4.775 4.775 0 004.774-4.774v-30.021a4.77 4.77 0 00-2.026-3.961zM41.092 142.298h8.69v1.672h-8.69v-1.672zm0 11.218h8.69v46.547h-8.69v-46.547zm18.236 13.975l13.276 32.572H59.328v-32.572zm23.587 32.572l-22.679-55.638c7.934-7.339 31.964-30.758 42.237-54.041h92.611c10.274 23.284 34.304 46.702 42.237 54.041l-22.679 55.638H82.915zm173.55-56.094h-8.69v-1.672h8.69v1.672zm-18.237 23.522v32.572h-13.276l13.276-32.572zm9.547-13.975h8.69v46.547h-8.69v-46.547zm8.69-20.766h-8.69V72.243h8.69v60.507zm-18.237-19.442l-13.49-41.065h13.49v41.065zm-23.54-41.065l17.695 53.863c-14.242-15.103-31.541-37.203-32.453-53.862h14.758zm-24.315 0c.114 2.804.583 5.68 1.336 8.594h-85.86c.752-2.914 1.22-5.79 1.335-8.594h83.189zM65.191 126.052l17.677-53.809h14.763c-.915 17.54-19.149 39.804-32.44 53.809zm-5.863-12.744V72.243H72.82l-13.49 41.065zm-9.547 19.442h-8.69V72.243h8.69v60.507zm209.945 76.86l11.027 7.763H27.828l10.11-7.763h221.788zm-3.261-157.063v10.15H41.092v-10.15h215.373zm24.587 194.906H18.547V226.92h262.505v20.533z" fill="#fff"/></svg>