<?xml version="1.0" encoding="UTF-8"?> <svg xmlns="http://www.w3.org/2000/svg" width="300" height="300" viewBox="0 0 300 300" fill="none"> <path d="M275.6 220.371H221.448C220.395 220.371 219.384 219.953 218.639 219.208C217.894 218.463 217.475 217.452 217.475 216.398C217.475 215.345 217.894 214.334 218.639 213.589C219.384 212.844 220.395 212.425 221.448 212.425H275.6C277.075 212.425 278.49 211.839 279.533 210.796C280.576 209.753 281.162 208.338 281.162 206.863V41.5081C281.162 40.0329 280.576 38.6182 279.533 37.5751C278.49 36.532 277.075 35.9459 275.6 35.9459H24.5081C23.0329 35.9459 21.6182 36.532 20.5751 37.5751C19.532 38.6182 18.9459 40.0329 18.9459 41.5081V206.863C18.9459 208.338 19.532 209.753 20.5751 210.796C21.6182 211.839 23.0329 212.425 24.5081 212.425H143.697C144.751 212.425 145.762 212.844 146.507 213.589C147.252 214.334 147.67 215.345 147.67 216.398C147.67 217.452 147.252 218.463 146.507 219.208C145.762 219.953 144.751 220.371 143.697 220.371H24.5081C22.7342 220.371 20.9777 220.022 19.3388 219.343C17.6999 218.664 16.2108 217.669 14.9564 216.415C13.7021 215.161 12.7071 213.671 12.0282 212.033C11.3494 210.394 11 208.637 11 206.863V41.5081C11 39.7342 11.3494 37.9777 12.0282 36.3388C12.7071 34.6999 13.7021 33.2108 14.9564 31.9564C17.4897 29.4232 20.9255 28 24.5081 28H275.6C279.183 28 282.618 29.4232 285.152 31.9564C287.685 34.4897 289.108 37.9255 289.108 41.5081V206.863C289.108 208.637 288.759 210.394 288.08 212.033C287.401 213.671 286.406 215.161 285.152 216.415C283.897 217.669 282.408 218.664 280.769 219.343C279.13 220.022 277.374 220.371 275.6 220.371Z" fill="#ffffff"></path> <path d="M244.768 200.12H222.877C221.823 200.12 220.812 199.702 220.067 198.957C219.322 198.212 218.904 197.201 218.904 196.147C218.904 195.094 219.322 194.083 220.067 193.338C220.812 192.593 221.823 192.175 222.877 192.175H241.152C241.966 187.786 244.091 183.746 247.248 180.59C250.404 177.434 254.443 175.309 258.832 174.495V73.8991C254.443 73.0853 250.404 70.9601 247.248 67.8038C244.091 64.6474 241.966 60.6083 241.152 56.2194H58.9876C58.1705 60.6128 56.0396 64.6548 52.8765 67.8115C49.7135 70.9681 45.6671 73.0908 41.2721 73.8991V174.495C45.6671 175.303 49.7135 177.426 52.8765 180.582C56.0396 183.739 58.1705 187.781 58.9876 192.175H142.305C143.359 192.175 144.369 192.593 145.114 193.338C145.859 194.083 146.278 195.094 146.278 196.147C146.278 197.201 145.859 198.212 145.114 198.957C144.369 199.702 143.359 200.12 142.305 200.12H55.3762C54.3225 200.12 53.3119 199.702 52.5669 198.957C51.8218 198.212 51.4032 197.201 51.4032 196.147C51.3937 192.413 49.9035 188.836 47.2594 186.199C44.6152 183.562 41.0332 182.082 37.2991 182.083C36.2454 182.083 35.2349 181.665 34.4898 180.92C33.7448 180.174 33.3262 179.164 33.3262 178.11V70.2837C33.3262 69.23 33.7448 68.2195 34.4898 67.4744C35.2349 66.7293 36.2454 66.3107 37.2991 66.3107C41.0332 66.3118 44.6152 64.8316 47.2594 62.195C49.9035 59.5583 51.3937 55.9805 51.4032 52.2464C51.4032 51.1927 51.8218 50.1822 52.5669 49.4371C53.3119 48.692 54.3225 48.2734 55.3762 48.2734H244.768C245.821 48.2734 246.832 48.692 247.577 49.4371C248.322 50.1822 248.741 51.1927 248.741 52.2464C248.745 55.9752 250.228 59.5501 252.865 62.1867C255.501 64.8234 259.076 66.3065 262.805 66.3107C263.859 66.3107 264.869 66.7293 265.614 67.4744C266.359 68.2195 266.778 69.23 266.778 70.2837V178.11C266.778 179.164 266.359 180.174 265.614 180.92C264.869 181.665 263.859 182.083 262.805 182.083C259.076 182.087 255.501 183.57 252.865 186.207C250.228 188.844 248.745 192.419 248.741 196.147C248.741 197.201 248.322 198.212 247.577 198.957C246.832 199.702 245.821 200.12 244.768 200.12Z" fill="#ffffff"></path> <path d="M200.044 82.7936H101.383C100.329 82.7936 99.3189 82.375 98.5738 81.6299C97.8287 80.8849 97.4102 79.8743 97.4102 78.8206C97.4102 77.7669 97.8287 76.7564 98.5738 76.0113C99.3189 75.2662 100.329 74.8477 101.383 74.8477H200.044C201.098 74.8477 202.108 75.2662 202.853 76.0113C203.598 76.7564 204.017 77.7669 204.017 78.8206C204.017 79.8743 203.598 80.8849 202.853 81.6299C202.108 82.375 201.098 82.7936 200.044 82.7936Z" fill="#ffffff"></path> <path d="M233.146 104.989H68.2679C67.2142 104.989 66.2037 104.57 65.4586 103.825C64.7135 103.08 64.2949 102.07 64.2949 101.016C64.2949 99.9622 64.7135 98.9517 65.4586 98.2066C66.2037 97.4615 67.2142 97.043 68.2679 97.043H233.146C234.2 97.043 235.211 97.4615 235.956 98.2066C236.701 98.9517 237.119 99.9622 237.119 101.016C237.119 102.07 236.701 103.08 235.956 103.825C235.211 104.57 234.2 104.989 233.146 104.989Z" fill="#ffffff"></path> <path d="M233.146 127.165H68.2679C67.2142 127.165 66.2037 126.746 65.4586 126.001C64.7135 125.256 64.2949 124.245 64.2949 123.192C64.2949 122.138 64.7135 121.127 65.4586 120.382C66.2037 119.637 67.2142 119.219 68.2679 119.219H233.146C234.2 119.219 235.211 119.637 235.956 120.382C236.701 121.127 237.119 122.138 237.119 123.192C237.119 124.245 236.701 125.256 235.956 126.001C235.211 126.746 234.2 127.165 233.146 127.165Z" fill="#ffffff"></path> <path d="M233.146 149.344H68.2679C67.2142 149.344 66.2037 148.926 65.4586 148.181C64.7135 147.436 64.2949 146.425 64.2949 145.371C64.2949 144.318 64.7135 143.307 65.4586 142.562C66.2037 141.817 67.2142 141.398 68.2679 141.398H233.146C234.2 141.398 235.211 141.817 235.956 142.562C236.701 143.307 237.119 144.318 237.119 145.371C237.119 146.425 236.701 147.436 235.956 148.181C235.211 148.926 234.2 149.344 233.146 149.344Z" fill="#ffffff"></path> <path d="M182.581 248.498C173.693 248.497 165.005 245.861 157.616 240.922C150.226 235.984 144.467 228.965 141.066 220.754C137.665 212.542 136.776 203.507 138.51 194.79C140.245 186.073 144.525 178.066 150.81 171.782C157.095 165.497 165.102 161.218 173.819 159.484C182.536 157.751 191.572 158.641 199.783 162.042C207.994 165.444 215.012 171.203 219.95 178.593C224.888 185.983 227.523 194.672 227.523 203.559C227.508 215.474 222.769 226.896 214.343 235.321C205.918 243.745 194.495 248.484 182.581 248.498ZM182.581 166.567C175.265 166.568 168.113 168.738 162.03 172.803C155.947 176.869 151.206 182.646 148.407 189.406C145.608 196.165 144.876 203.603 146.304 210.779C147.732 217.954 151.255 224.545 156.429 229.718C161.602 234.891 168.194 238.414 175.369 239.841C182.545 241.268 189.983 240.535 196.742 237.735C203.501 234.935 209.278 230.194 213.343 224.111C217.408 218.028 219.577 210.876 219.577 203.559C219.567 193.751 215.665 184.347 208.729 177.412C201.793 170.477 192.389 166.577 182.581 166.567Z" fill="#ffffff"></path> <path d="M167.134 286.568C166.41 286.569 165.699 286.371 165.078 285.996C164.458 285.622 163.951 285.084 163.614 284.443L157.496 272.782L144.933 276.755C144.213 276.985 143.442 277.004 142.711 276.811C141.98 276.617 141.32 276.219 140.807 275.664C140.294 275.108 139.951 274.418 139.817 273.674C139.683 272.929 139.764 272.163 140.051 271.463L154.918 235.253C155.109 234.761 155.396 234.312 155.763 233.932C156.13 233.552 156.569 233.249 157.054 233.041C157.539 232.833 158.061 232.723 158.589 232.719C159.117 232.715 159.64 232.816 160.129 233.016C160.617 233.216 161.061 233.512 161.434 233.886C161.807 234.26 162.102 234.704 162.301 235.194C162.5 235.683 162.599 236.206 162.594 236.734C162.588 237.262 162.477 237.784 162.268 238.269L150.635 266.6L158.259 264.173C159.149 263.889 160.11 263.928 160.973 264.283C161.837 264.637 162.549 265.285 162.983 266.111L166.709 273.207L179.133 242.985C179.55 242.034 180.322 241.284 181.285 240.896C182.247 240.507 183.324 240.511 184.283 240.906C185.243 241.301 186.011 242.056 186.421 243.01C186.831 243.963 186.852 245.039 186.479 246.008L170.825 284.101C170.538 284.8 170.057 285.403 169.439 285.839C168.822 286.274 168.092 286.525 167.337 286.56L167.134 286.568Z" fill="#ffffff"></path> <path d="M198.01 286.549H197.823C197.068 286.513 196.339 286.263 195.721 285.827C195.103 285.391 194.622 284.789 194.335 284.089L178.682 245.996C178.308 245.028 178.329 243.951 178.74 242.998C179.15 242.045 179.917 241.289 180.877 240.894C181.837 240.499 182.913 240.496 183.876 240.884C184.838 241.273 185.611 242.022 186.028 242.973L198.451 273.199L202.178 266.104C202.612 265.277 203.323 264.629 204.187 264.275C205.051 263.92 206.012 263.881 206.902 264.165L214.518 266.592L203.338 239.421C203.121 238.936 203.004 238.411 202.993 237.88C202.983 237.348 203.079 236.82 203.277 236.326C203.474 235.832 203.769 235.383 204.143 235.005C204.517 234.627 204.963 234.329 205.455 234.126C205.947 233.924 206.474 233.823 207.006 233.828C207.538 233.834 208.063 233.946 208.551 234.158C209.038 234.37 209.478 234.678 209.845 235.064C210.211 235.449 210.497 235.904 210.684 236.402L225.11 271.451C225.394 272.15 225.474 272.916 225.339 273.659C225.204 274.402 224.86 275.091 224.348 275.645C223.835 276.2 223.176 276.597 222.446 276.79C221.716 276.983 220.946 276.964 220.227 276.735L207.66 272.762L201.526 284.439C201.187 285.077 200.681 285.611 200.061 285.982C199.442 286.354 198.733 286.55 198.01 286.549Z" fill="#ffffff"></path> </svg>
