<svg xmlns="http://www.w3.org/2000/svg" width="300" height="300" fill="none"><path d="M275.6 220.371h-54.152a3.973 3.973 0 110-7.946H275.6a5.563 5.563 0 005.562-5.562V41.508a5.562 5.562 0 00-5.562-5.562H24.508a5.562 5.562 0 00-5.562 5.562v165.355a5.562 5.562 0 005.562 5.562h119.189a3.975 3.975 0 012.81 6.783 3.974 3.974 0 01-2.81 1.163H24.508A13.505 13.505 0 0111 206.863V41.508A13.509 13.509 0 0124.508 28H275.6a13.51 13.51 0 0113.508 13.508v165.355a13.508 13.508 0 01-13.508 13.508z" fill="#fff"/><path d="M244.768 200.12h-21.891a3.974 3.974 0 110-7.945h18.275a22.072 22.072 0 0117.68-17.68V73.899a22.072 22.072 0 01-17.68-17.68H58.988A22.081 22.081 0 0141.272 73.9v100.596a22.083 22.083 0 0117.716 17.68h83.317a3.971 3.971 0 110 7.945H55.376a3.972 3.972 0 01-3.973-3.973A14.1 14.1 0 0037.3 182.083a3.973 3.973 0 01-3.973-3.973V70.284A3.973 3.973 0 0137.3 66.31a14.1 14.1 0 0014.104-14.065 3.973 3.973 0 013.973-3.973h189.392a3.973 3.973 0 013.973 3.973 14.078 14.078 0 0014.064 14.065 3.972 3.972 0 013.973 3.973V178.11a3.976 3.976 0 01-3.973 3.973 14.08 14.08 0 00-14.064 14.064 3.975 3.975 0 01-3.973 3.973z" fill="#fff"/><path d="M200.044 82.794h-98.661a3.972 3.972 0 110-7.946h98.661a3.971 3.971 0 012.809 6.782 3.972 3.972 0 01-2.809 1.164zm33.102 22.195H68.268a3.974 3.974 0 010-7.946h164.878a3.974 3.974 0 110 7.946zm0 22.176H68.268a3.974 3.974 0 010-7.946h164.878a3.974 3.974 0 110 7.946zm0 22.179H68.268a3.973 3.973 0 110-7.946h164.878a3.975 3.975 0 012.81 6.783 3.974 3.974 0 01-2.81 1.163zm-50.565 99.154a44.938 44.938 0 1144.942-44.939 44.994 44.994 0 01-44.942 44.939zm0-81.931a36.997 36.997 0 00-34.174 22.839 36.992 36.992 0 1071.17 14.153 37.03 37.03 0 00-36.996-36.992z" fill="#fff"/><path d="M167.134 286.568a3.967 3.967 0 01-3.52-2.125l-6.118-11.661-12.563 3.973a3.971 3.971 0 01-4.882-5.292l14.867-36.21a3.968 3.968 0 013.671-2.534 3.987 3.987 0 012.845 1.167 3.964 3.964 0 011.16 2.848 3.995 3.995 0 01-.326 1.535L150.635 266.6l7.624-2.427a3.973 3.973 0 014.724 1.938l3.726 7.096 12.424-30.222a3.97 3.97 0 015.15-2.079 3.972 3.972 0 012.196 5.102l-15.654 38.093a3.976 3.976 0 01-3.488 2.459l-.203.008z" fill="#fff"/><path d="M198.01 286.549h-.187a3.974 3.974 0 01-3.488-2.46l-15.653-38.093a3.973 3.973 0 017.346-3.023l12.423 30.226 3.727-7.095a3.969 3.969 0 014.724-1.939l7.616 2.427-11.18-27.171a3.978 3.978 0 01-.061-3.095 3.97 3.97 0 015.274-2.168 3.975 3.975 0 012.133 2.244l14.426 35.049a3.978 3.978 0 01-.762 4.194 3.972 3.972 0 01-4.121 1.09l-12.567-3.973-6.134 11.677a3.97 3.97 0 01-3.516 2.11z" fill="#fff"/></svg>