<svg xmlns="http://www.w3.org/2000/svg" width="300" height="300" fill="none"><path d="M113.427 105.071c2.949-16.142 11.923-65.264 16.397-94.21A4.218 4.218 0 00125.657 6H62.878a4.217 4.217 0 00-4.203 4.548c.423 5.375 1.108 11.153 1.835 17.27 2.983 25.125 7.068 59.535-2.22 110.837-1.233 6.806-1.435 19.339-1.453 31.833C54.93 182.927 54 198.931 54 219.407c0 20.634 2.703 38.215 7.816 50.841 7.71 19.041 19.28 23.038 27.63 23.038 22.859 0 35.446-26.238 35.446-73.88 0-40.279-3.531-63.728-11.422-75.621-1.246-13.296-2.208-26.238-.868-34.177.052-.301.346-1.909.825-4.537zM66.3 142.053c5.257.872 12.747 1.783 21.131 1.783 5.556 0 11.5-.416 17.434-1.495.101 1.102.205 2.211.311 3.327v.001l.006.071.14 1.461c-3.705 5.684-10.46 15.065-19.618 23.706-3.595-3.258-6.678-6.617-9.227-9.714-4.77-5.797-8.295-11.393-10.558-15.379a77.03 77.03 0 01.381-3.761zm26.159 34.341a127.224 127.224 0 007.815-8.209 144.61 144.61 0 006.306-7.766c.763 8.42 1.374 16.701 1.374 23.92v.378c-5.746-2.089-10.922-5.018-15.495-8.323zm15.465 17.422c-.107 11.471-.608 21.938-2.974 29.579-2.979 9.619-8.46 13.724-18.33 13.724-9.868 0-15.35-4.105-18.329-13.724-2.293-7.407-2.835-17.467-2.963-28.525 6.936-2.922 13.816-7.147 20.477-12.579 6.357 4.816 13.725 8.942 22.119 11.525zm-42.653-23.014v-.001c.005-3.288.022-6.625.068-9.863 3.617 5.023 8.189 10.536 13.749 15.7-4.229 3.34-8.848 6.368-13.802 8.789v-1.088c0-1.777-.004-3.634-.007-5.543-.006-2.593-.01-5.282-.007-7.994zm47.738 55.086l.016-.058c.181-.586.348-1.187.511-1.795.035-.141.074-.284.111-.428a53.99 53.99 0 00.442-1.852c.031-.139.06-.281.09-.421.125-.584.243-1.174.354-1.774l.055-.292a72.906 72.906 0 00.41-2.529c.098-.672.191-1.351.276-2.04.018-.139.033-.281.05-.422.073-.615.141-1.238.205-1.866l.049-.481a115.459 115.459 0 00.233-2.739c.054-.725.105-1.454.15-2.192.008-.12.013-.243.02-.364.039-.666.074-1.337.106-2.014l.029-.629c.028-.642.055-1.287.077-1.938.177 5.402.266 11.182.266 17.351 0 19.678-2.632 65.446-27.012 65.446-17.223 0-24.859-25.278-26.609-52.575.021.04.045.076.067.117.255.478.518.943.791 1.394l.167.268c.275.443.556.876.849 1.293l.05.074c.305.432.622.845.947 1.248.066.082.132.165.199.246.321.389.651.766.991 1.129l.18.186c.33.344.669.678 1.017.998.037.034.072.07.11.104.369.334.75.652 1.139.96l.24.188c.39.299.788.587 1.196.86.06.04.122.077.182.116.39.255.787.497 1.194.727.06.034.117.07.177.102a22.434 22.434 0 001.615.809c.46.208.926.408 1.406.589.053.021.108.039.162.059.455.169.921.326 1.395.472.082.025.162.052.245.077a26.81 26.81 0 001.527.402c.107.026.215.049.322.073a29.13 29.13 0 001.625.319l.11.016c.533.087 1.078.158 1.63.219l.315.036c.565.057 1.14.101 1.725.133l.356.016a39.31 39.31 0 005.564-.124c11.527-1.096 18.964-7.503 22.678-19.494zm-7.878-122.333c-.492 2.693-.792 4.34-.845 4.648v.001c-1.121 6.64-.886 15.545-.146 25.502-13.798 2.657-28.15 1.164-36.413-.186 8.01-48.884 4.073-82.14 1.158-106.696-.513-4.32-1.006-8.47-1.395-12.39h53.236c-4.648 29.193-12.812 73.881-15.595 89.121z" fill="#fff"/><path d="M274.096 185.025c-2.588-3.229-5.769-6.926-9.137-10.84-8.098-9.41-18.175-21.122-26.507-33.827-9.909-15.11-11.852-34.672-10.506-46.833a10.852 10.852 0 00-2.736-8.475c-2.072-2.29-5.02-3.556-8.124-3.547l-23.494.267a7.275 7.275 0 00-4.573 1.644c-4.668-1.395-11.493-5.853-16.69-19.364-2.897-7.533-11.423-24.536-25.343-50.538l-1.11-2.07a4.218 4.218 0 00-7.431 3.989l1.105 2.063c13.561 25.332 22.173 42.478 24.907 49.584 1.375 3.575 2.878 6.649 4.458 9.293a287.875 287.875 0 01-6.636 16.358c-4.451 10.032-8.785 18.005-12.775 23.551-5.014-6.66-11.213-14.888-18.734-24.86a4.217 4.217 0 10-6.734 5.077c20.925 27.749 31.663 42.033 34.82 46.314 4.72 6.4 17.978 16.324 39.4 29.497a11.657 11.657 0 002.956 3.152l48.279 35.073a17.875 17.875 0 0010.64 3.489c3.376 0 6.756-.944 9.696-2.847a17.921 17.921 0 007.948-12.168 17.818 17.818 0 00-3.679-13.982zm-119.201-61.58c8.415-10.755 15.969-28.207 20.199-39.032 3.916 3.9 7.873 5.94 11.187 6.984l-.004.268c-.015.797-.027 1.591-.034 2.382v.019c-.007.812-.008 1.62-.006 2.427l.001.458c.007 1.607.031 3.202.071 4.785l.01.418c.043 1.595.101 3.176.173 4.743l.017.362c.075 1.579.165 3.142.268 4.688l.021.319c.106 1.558.225 3.098.356 4.62l.023.267c.085.975.175 1.942.269 2.901-4.215 5.925-11.38 13.721-21.814 17.734-1.591-2.158-5.062-6.796-10.737-14.343zm17.411 20.883c6.884-3.272 12.372-7.812 16.581-12.32.155 1.084.315 2.153.477 3.206l.017.107c.213 1.379.433 2.731.658 4.051l.014.086c.225 1.322.455 2.613.687 3.872l.015.082a304.823 304.823 0 00.704 3.676l.015.075c.117.59.235 1.172.353 1.745l.016.076c.113.552.227 1.097.34 1.632l.019.088c.117.55.233 1.091.349 1.624l.022.096a211.175 211.175 0 00.354 1.598c.114.502.226.996.338 1.482l.034.144a228.384 228.384 0 00.66 2.783l.047.195a194.135 194.135 0 00.309 1.253c-9.452-6.061-16.904-11.329-22.009-15.551zm97.144 53.332a9.35 9.35 0 01-4.201 6.433c-3.283 2.122-7.598 1.986-10.769-.362l-48.311-35.095a3.192 3.192 0 01-.997-1.183l-.006-.016c-.031-.065-.05-.13-.077-.196-.037-.091-.079-.18-.107-.276-.874-2.916-2.379-8.273-3.974-15.433l-.008-.037-.22-.997-.009-.042a234.71 234.71 0 01-.216-.998l-.015-.068-.213-1.006-.017-.083a283.353 283.353 0 01-.433-2.107c-.01-.05-.021-.098-.03-.148a285.9 285.9 0 01-.195-.982l-.036-.179-.191-.983-.039-.199c-.064-.333-.128-.669-.191-1.007l-.035-.189c-.064-.341-.128-.685-.191-1.031l-.036-.191-.188-1.042-.035-.201c-.062-.343-.122-.688-.182-1.034l-.042-.239c-.059-.339-.117-.682-.175-1.025l-.044-.261c-.058-.346-.116-.693-.173-1.043l-.043-.26-.167-1.041-.046-.287c-.056-.35-.11-.702-.165-1.055l-.044-.285-.159-1.055-.047-.313-.152-1.044-.048-.341c-.05-.346-.099-.694-.147-1.043l-.049-.355a273.36 273.36 0 01-.329-2.483l-.046-.359c-.045-.355-.089-.711-.132-1.069l-.048-.383a166.537 166.537 0 01-.172-1.462 297.79 297.79 0 01-.122-1.083l-.044-.397-.116-1.079-.043-.418a174.953 174.953 0 01-.152-1.508 340.429 340.429 0 01-.144-1.523c-.034-.365-.066-.732-.098-1.099l-.038-.444-.091-1.089-.037-.465a184.91 184.91 0 01-.083-1.088l-.036-.482-.076-1.074-.034-.509c-.024-.355-.046-.712-.069-1.069l-.032-.525c-.021-.353-.041-.707-.06-1.061l-.03-.542-.054-1.062-.026-.554c-.016-.35-.032-.703-.046-1.055l-.024-.573-.039-1.048-.02-.591-.031-1.04-.016-.611-.023-1.023-.012-.638-.016-1.017-.008-.65-.008-1.001-.002-.684c-.002-.328-.002-.655-.001-.983l.002-.706.007-.963.008-.74.014-.942.015-.762.021-.927.011-.387 22.434-.255h.029c.909 0 1.484.484 1.748.775.27.299.709.941.604 1.885-1.573 14.202.711 35.422 11.836 52.387 8.634 13.164 18.91 25.107 27.167 34.703 3.319 3.857 6.454 7.5 8.951 10.614 1.677 2.09 2.364 4.703 1.934 7.358z" fill="#fff"/></svg>