<svg xmlns="http://www.w3.org/2000/svg" width="300" height="300" fill="none"><g clip-path="url(#clip0)" fill="#fff"><path d="M65.005 120.793v56.139l-16.292 16.359a26.315 26.315 0 0018.63 44.894h.054l19.538-.044v28.509c0 8.479 6.873 15.351 15.351 15.351 8.477 0 15.351-6.872 15.351-15.351v-30.021a15.274 15.274 0 000-27.632v-47.723l24.267-12.801a13.164 13.164 0 006.879-9.701 13.153 13.153 0 00-3.753-11.286l-23.564-23.343a21.785 21.785 0 00-15.435-6.35H82.856a8.73 8.73 0 01-6.192-2.56L65.005 83.604v-3.507a80.042 80.042 0 011.315-19.098 68.112 68.112 0 015.142-14.42c.6-1.155 1.26-2.28 1.978-3.368a21.402 21.402 0 004.557-12.773A12.72 12.72 0 0065.257 19h-.09c-5.645.03-11.206 3.881-15.657 10.812a64.14 64.14 0 00-7.15 17.17 131.777 131.777 0 00-3.67 36.562 26.139 26.139 0 007.694 18.595l18.621 18.654zm37.281 152.436a6.579 6.579 0 01-6.579-6.579v-28.509h13.157v28.509a6.579 6.579 0 01-6.578 6.579zm13.434-45.775a6.517 6.517 0 01-3.273 1.752 7.287 7.287 0 01-1.389.163H91.32l-23.934.044h-.044a17.544 17.544 0 01-12.423-29.929l17.565-17.623c.4-.406.717-.886.934-1.412.192-.483.297-.999.307-1.521 0-.053.03-.097.03-.149v-2.04h35.088v30.702H95.707v-14.269a6.579 6.579 0 00-11.233-4.648L68.019 204.98a6.58 6.58 0 004.648 11.233h38.391c.442.008.881.054 1.315.134a6.582 6.582 0 013.325 11.107h.022zm-3.395-83.197l4.513 7.518-5.636 2.974c-.1.052-.246.144-.391.241l-1.227.63a4.416 4.416 0 01-5.93-1.867 4.18 4.18 0 01-.49-2.014 4.25 4.25 0 01.319-1.521 4.006 4.006 0 012.036-2.364l6.806-3.597zm-25.39 63.184h-8.974l8.974-8.974v8.974zm9.798-100.877l-5.413 9.023-5.41-9.023h10.823zm-26.263-5.122a17.556 17.556 0 003.877 2.837c.026.049.026.107.058.159l11.276 18.794a6.58 6.58 0 0011.28 0l9.951-16.584c3.152.185 6.13 1.51 8.378 3.729l23.565 23.337a4.385 4.385 0 01-1.034 7.017l-13.211 6.947-4.521-7.525 4.591-2.431a4.385 4.385 0 001.056-6.977l-9.38-9.382a4.336 4.336 0 00-1.431-.952 4.386 4.386 0 00-6.061 4.048v11.703l-7.395 3.911a13.506 13.506 0 00-7.079 11.666 13.013 13.013 0 001.524 6.14 13.21 13.21 0 0012.95 6.93v3.159H73.777v-48.99c0-1.163-.46-2.275-1.281-3.098L52.59 95.941a17.419 17.419 0 01-5.128-12.397 124.687 124.687 0 013.337-34.141c.34-1.193.706-2.43 1.114-3.688l8.605 4.302a76.364 76.364 0 00-2.726 8.99 88.03 88.03 0 00-1.558 21.138v3.714a8.103 8.103 0 002.395 5.776l11.841 11.807zM65.208 27.76h.026a3.91 3.91 0 014.008 3.407 15.714 15.714 0 01-3.227 7.372 55.888 55.888 0 00-2.01 3.413l-8.771-4.386c.522-1.018 1.056-2.03 1.67-2.996 2.707-4.244 5.817-6.784 8.32-6.798l-.016-.012z"/><path d="M69.39 69.283c0 13.32 10.8 24.122 24.123 24.122 13.321 0 24.123-10.801 24.123-24.122 0-13.323-10.802-24.123-24.123-24.123-13.317.014-24.108 10.806-24.122 24.123zm24.123-15.351c8.477 0 15.349 6.872 15.349 15.35 0 8.48-6.872 15.352-15.349 15.352-8.478 0-15.35-6.873-15.35-15.351 0-8.479 6.872-15.351 15.35-15.351zm118.42 43.852a23.086 23.086 0 008.561-1.596c11.406-4.33 17.784-16.493 14.857-28.339-2.927-11.843-14.235-19.637-26.345-18.158-12.11 1.482-21.209 11.772-21.195 23.97a23.679 23.679 0 001.391 8.09 24.142 24.142 0 0022.731 16.033zm0-39.473a15.351 15.351 0 015.391 29.697 14.4 14.4 0 01-5.391 1.004A15.35 15.35 0 01197.46 78.79a14.998 14.998 0 01-.878-5.127 15.353 15.353 0 0115.351-15.351z"/><path d="M149.285 191.885a8.778 8.778 0 00-2.861 6.868 8.777 8.777 0 003.445 6.597l4.03 3.07c.179.161.369.307.57.438.877.562 1.755 1.07 2.632 1.588v56.206c0 8.478 6.873 15.35 15.351 15.35 8.477 0 15.351-6.872 15.351-15.35v-46.571c3.186.337 6.386.514 9.591.528a124.98 124.98 0 0029.694-3.947l29.2 50.634a15.35 15.35 0 0028.117-3.732 15.184 15.184 0 00-1.534-11.623l-26.272-45.526c.877-.398 1.754-.798 2.487-1.153a8.774 8.774 0 002.715-13.781l-18.266-20.271c2.887.513 5.864.036 8.446-1.356a13.218 13.218 0 006.894-10.086l2.843-24.255a17.542 17.542 0 00-10.088-17.981l-30.792-14.207a17.546 17.546 0 00-12.237-.917l-14.703 4.272a3.35 3.35 0 01-2.754-.399 3.418 3.418 0 01-1.538-2.464l-11.715-65.324a13.3 13.3 0 00-13.062-11.224c-.5 0-1.056.049-1.952.141-7.183 1.16-12.092 7.888-11.008 15.084l12.496 72.309a106.57 106.57 0 002.371 10.527l6.601 23.534a28.18 28.18 0 01-8.223 28.622l-15.829 14.399zm29.754 74.767a6.579 6.579 0 11-13.158 0v-51.867a63.097 63.097 0 004.075 1.499h.027l.14.053h.038c1.088.399 2.195.732 3.287 1.052 1.829.526 3.696.981 5.591 1.377v47.886zm96.902-5.329a6.578 6.578 0 01-12.048 1.6l-28.07-48.682a166.035 166.035 0 0012.618-4.421l26.855 46.542a6.471 6.471 0 01.645 4.961zM160.526 41.111a4.387 4.387 0 013.536-5.008 4.528 4.528 0 015.18 3.829l11.727 65.319a12.148 12.148 0 0015.399 9.855l14.702-4.268a8.714 8.714 0 016.14.44l30.78 14.2a8.774 8.774 0 015.035 8.987l-2.839 24.245a4.459 4.459 0 01-2.319 3.399 4.389 4.389 0 01-4.188-.03 4.64 4.64 0 01-2.194-4.725l.706-5.92 1.378-11.667a8.744 8.744 0 00-5.036-8.991l-15.447-7.105a6.468 6.468 0 00-5.766.167 22.465 22.465 0 00-20.944-.185 28.777 28.777 0 00-21.157-.566l-.034-.122a97.073 97.073 0 01-2.195-9.649l-12.464-72.205zm69.525 115.091l-6.328-22.593 11.114 5.12-1.383 11.661-.701 5.92c0 .085.026.163.022.247h-.052a14.71 14.71 0 00-.044 2.604l-2.628-2.959zm-48.245-9.707l-4.148-14.775a19.006 19.006 0 0115.562.096 8.594 8.594 0 007.179-.487 14.225 14.225 0 0113.797.746l7.698 27.474c0 .038.04.068.052.112.062.151.132.297.211.44.146.349.339.679.57.978.048.056.062.13.11.188l32.465 36.087c-1.799.877-4.04 1.881-6.668 2.987a152.684 152.684 0 01-20.52 7.101 97.569 97.569 0 01-52.237 1.556c-.947-.275-1.895-.548-3.003-.963a59.577 59.577 0 01-13.448-6.409l-4.238-3.228 15.843-14.403a36.889 36.889 0 0010.763-37.516l.012.016z"/></g><defs><clipPath id="clip0"><path fill="#fff" transform="translate(30 19)" d="M0 0h263v263H0z"/></clipPath></defs></svg>