<?xml version="1.0" encoding="utf-8"?>
<!-- Generator: Adobe Illustrator 24.0.1, SVG Export Plug-In . SVG Version: 6.00 Build 0)  -->
<svg version="1.1" id="Слой_1" xmlns="http://www.w3.org/2000/svg" xmlns:xlink="http://www.w3.org/1999/xlink" x="0px" y="0px"
	 viewBox="0 0 1338.5 512.8" style="enable-background:new 0 0 1338.5 512.8;" xml:space="preserve">
<style type="text/css">
	.st0{clip-path:url(#SVGID_2_);}
	.st1{fill:#C06A79;}
</style>
<g>
	<defs>
		<rect id="SVGID_1_" x="-596.3" y="-69.1" width="340.2" height="815"/>
	</defs>
	<clipPath id="SVGID_2_">
		<use xlink:href="#SVGID_1_"  style="overflow:visible;"/>
	</clipPath>
	<g class="st0">
		<defs>
			<rect id="SVGID_3_" x="-596.3" y="-69.1" width="340.2" height="815"/>
		</defs>
		<clipPath id="SVGID_4_">
			<use xlink:href="#SVGID_3_"  style="overflow:visible;"/>
		</clipPath>
	</g>
</g>
<g>
	<g>
		<path class="st1" d="M222.9,429c-6.9,20.7-18.7,45.3-37.7,60.1c-5,3.8-10.5,7.1-16.4,9.7c2.8,1,5.6,2,8.4,2.9
			c16.9,5.4,34.6,9.1,52.9,10.8C225.1,489.4,222.2,459.8,222.9,429z"/>
		<path class="st1" d="M255.1,1.1C113.6,1.1-1.1,115.9-1.1,257.4c0,80.7,37.3,152.7,95.6,199.7c7.3-16.5,17.6-33.2,31.9-44.2
			c33.4-25.8,74.5-24.9,87-23.8c-16-2.8-87.1-17-126.2-67.6C44,265.6,56.4,165,56.4,165s100.5,13.4,143.6,69.2
			c29.7,38.4,33.7,98.7,33.2,132.6c4.2-8.7,11.2-20.1,25-42c45-69.5,52.2-68.5,48.2-111.2c-3.6-28.9-71.2-27.7-38-121.2
			c-28.9,1.6-43.3,48.3-23.1,72.6c27.5,33.3,38.3,44.7,31.3,59.9c-12.2,26.8-67.7,25.6-46.8-7c10.2,22.6,25.9,4.3,17.5-6.3
			c-19.9-25.2-85.1-48.8-50.7-121.6c4.6-10.6,13-18.8,20-27.9c15.4-19.9,49.3-23.3,66.9-4.4c0.6-3.7-1.3-8.7,2.5-11.2
			c4.4-0.2,8.8,0.3,12.9,2c0,3.7-0.4,7.4-1,11.1c51.6-22.5,87.8,21.1,95.7,25.5c10.8,3.6,25.3-1.1,33.9,34.6
			c1.8,7.9-9.6,8.1-12.4,13.8c-0.7,4.3-0.3,8.7-1,13c-1.9,4.6-4.1,9.2-3.9,14.3c3.2-1,6.4-2.1,9.7-3c-2.6,2.3-5.1,4.6-7.6,6.9
			c2.7,5.8,7.3,10.3,11.5,15c0.6,6-9.1,7.1-8.3,13.2c0.9,3.3,2.8,6.1,4.4,9.1c-1.6,2-3.2,4.1-4.8,6.2c0.4,1.9,0.7,3.8,1.1,5.8
			c-3.3,3.3-8.3,6.3-7.9,11.6c-2.1,19,4.3,15.9-45.9,6.9c-5.6-1.3-16.4,29.9-19,41.2c-5.9,36.5,33.3,47.8,53.2,81.5
			c26.7,45.2,30.6,76.1,23.9,98.2c10.5-8.8,20.2-18.5,29.1-28.9c38.5-44.9,61.8-103.2,61.8-166.9C511.4,115.9,396.7,1.1,255.1,1.1z"
			/>
		<path class="st1" d="M691.5,83c15.5,0,25.4-9.1,25.4-22.7c0-13.6-9.9-22.4-25.4-22.4c-15.3,0-25.6,8.9-25.6,22.4
			C665.9,73.9,676.3,83,691.5,83z"/>
		<path class="st1" d="M581.5,221.3c-9.1,0-9.1,12.3,0,12.3H746c10.1,0,12.1-0.7,12.1-8.4l0.2-32.1c0-4.2-7.2-8.1-12.6,0
			c-4.7,7.4-8.9,13.1-12.3,18.2c-5.4,8.6-12.1,9.9-26.1,9.9c-14.1,0-61.9,0-72.8,0c-7.4,0-9.6-2-9.6-9.4V59.6
			c-0.2-4.2,1.7-9.4,6.4-9.4c9.1,0,9.1-12.3,0-12.3h-49.6c-9.1,0-9.1,12.3,0,12.3c4.7,0,6.2,5.2,6.2,11.1v148.9
			C587.9,216.2,586.2,221.3,581.5,221.3z"/>
		<path class="st1" d="M673.5,134.3c4.7,0,6.2,4.9,6.4,10.8l0.2,41.7c0.2,5.9-1.5,11.1-6.2,11.1c-9.1,0-9.1,12.3,0,12.3h29.6
			c13.6,0,13.6-6.4,13.6-23.4l-0.2-77.7c0-7.4-5.2-9.1-12.6-5.4l-30.8,15.8c-5.4,2.5-7.9,4.4-7.9,8.9
			C665.7,131.8,667.9,134.3,673.5,134.3z"/>
		<path class="st1" d="M765,120.7h6.7v81.6c0,20,7.9,38.5,34.3,38.2c19.5-0.2,29.6-12.6,29.6-30.8c0-10.4-12.3-10.1-12.3,0
			c0,17.5-14.5,17.5-14.5,4.2v-71.8c0-18.2,2.2-21.5,20.5-21.5c8.6,0,8.6-12.3,0-12.3h-20.5l-0.2-21.5c-0.2-8.9-11.6-11.6-14.8,0
			c-2.7,10.1-8.9,21.5-21.7,21.5H765C756.3,108.4,756.3,120.7,765,120.7z"/>
		<path class="st1" d="M849.8,120.7h6.7v81.6c0,20,7.9,38.5,34.3,38.2c19.5-0.2,29.6-12.6,29.6-30.8c0-10.4-12.3-10.1-12.3,0
			c0,17.5-14.5,17.5-14.5,4.2v-71.8c0-18.2,2.2-21.5,20.5-21.5c8.6,0,8.6-12.3,0-12.3h-20.5l-0.2-21.5c-0.2-8.9-11.6-11.6-14.8,0
			c-2.7,10.1-8.9,21.5-21.7,21.5h-6.9C841.2,108.4,841.2,120.7,849.8,120.7z"/>
		<path class="st1" d="M985.2,221.3c-4.7,0-6.2-5.2-6.2-11.1V27.8c0-8.1-6.7-8.9-11.3-6.4l-31.8,16.5c-5.4,2.5-7.9,4.4-7.9,8.9
			c0,3.7,2,5.9,7.9,5.9c4.7,0,6.2,5.2,6.2,11.1v146.5c0,5.9-1.5,11.1-6.2,11.1c-9.1,0-9.1,12.3,0,12.3h49.3
			C994.3,233.7,994.3,221.3,985.2,221.3z"/>
		<path class="st1" d="M1101.3,200.4c-7.2,16.3-19.5,22.9-31.3,22.9c-27.4,0-34.8-26.9-34.8-52.3h32.8c31.3,0,42.2-11.1,42.2-27.9
			c0-28.8-21.7-41.4-51.3-41.4s-60.7,19.5-60.7,69.3c0,35.5,18.5,69.5,59.7,69.5c22.9,0,45.1-13.8,53-37.2
			C1113.4,195.9,1104.5,193,1101.3,200.4z M1035.7,149.8c1-12.6,2.5-35.5,19.7-35.5c12.3,0,18.5,8.9,18.2,23.4
			c0,12.8-5.9,21.2-19.2,21h-19C1035.5,155.7,1035.7,152.8,1035.7,149.8z"/>
		<path class="st1" d="M633.8,303.1c10.9,0,43.9,0,58.2,0c14.1,0,20.5,1.2,26.1,9.9c3.5,5.2,7.4,10.9,12.3,18.2
			c5.2,8.1,12.3,4.2,12.3,0v-32.1c0-7.6-2.2-8.4-12.3-8.4H580.8c-9.1,0-9.1,12.3,0,12.3c4.7,0,6.4,5.2,6.4,11.1v148.9
			c0,5.9-1.7,11.1-6.4,11.1c-9.1,0-9.1,12.3,0,12.3h49.6c9.1,0,9.1-12.3,0-12.3c-4.7,0-6.2-5.2-6.2-11.1v-66.8h41.9
			c14.1,0,20.5,1.2,26.1,9.9c3.5,5.2,7.4,10.6,12.3,18.2c5.2,8.1,13.1,4.2,12.3,0l-9.9-69.3c-0.7-4.2-7.2-8.1-12.6,0
			c-4.9,7.6-8.9,13.1-12.3,18.5c-5.7,8.6-12.1,9.9-26.1,9.9h-31.8v-71C624.2,305.1,626.4,303.1,633.8,303.1z"/>
		<path class="st1" d="M890,290.8c-15.3,0-25.6,8.9-25.6,22.4c0,13.6,10.4,22.7,25.6,22.7c15.5,0,25.6-9.1,25.6-22.7
			C915.7,299.6,905.6,290.8,890,290.8z"/>
		<path class="st1" d="M921.8,474.2c-4.4,0-6.2-5.2-6.2-11.1V362c0-7.4-5.2-9.1-12.8-5.4l-30.6,15.8c-5.4,2.5-7.9,4.4-7.9,8.9
			c0,3.5,2,5.9,7.9,5.9c4.7,0,6.2,4.9,6.2,10.8l0.5,65.1c0,5.9-1.7,11.1-6.2,11.1c-9.4,0-9.4,12.3,0,12.3h49.1
			C931.2,486.6,931.2,474.2,921.8,474.2z"/>
		<path class="st1" d="M1034,333.4c13.3,0,14.5,10.9,26.4,10.9c19.5,0,24.2-22.7,10.8-32.5c-17.8-13.3-63.6-6.7-85.1,45.1
			c-2-2.7-6.2-3-11.3-0.2l-30.6,15.8c-5.4,2.5-7.9,4.4-7.9,8.9c0,3.5,2,5.9,7.9,5.9c4.7,0,6.2,4.9,6.2,10.8l0.5,65.1
			c0,5.9-1.7,11.1-6.2,11.1c-9.4,0-9.4,12.3,0,12.3h49.1c9.4,0,9.4-12.3,0-12.3c-4.4,0-6.2-5.2-6.2-11.1v-66.6
			C989.2,352.4,1016.8,333.4,1034,333.4z"/>
		<path class="st1" d="M1084.1,474.2c-4.4,0-6.2-5.2-6.2-11.1V362c0-7.4-5.2-9.1-12.8-5.4l-30.6,15.8c-5.4,2.5-7.9,4.4-7.9,8.9
			c0,3.5,2,5.9,7.9,5.9c4.7,0,6.2,4.9,6.2,10.8l0.5,65.1c0,5.9-1.7,11.1-6.2,11.1c-9.4,0-9.4,12.3,0,12.3h49.1
			C1093.5,486.6,1093.5,474.2,1084.1,474.2z"/>
		<path class="st1" d="M1202.7,453.3c-7.2,16.3-19.5,22.9-31.3,22.9c-27.4,0-34.8-26.9-34.8-52.3h32.8c31.3,0,42.2-11.1,42.2-27.9
			c0-28.8-21.7-41.4-51.3-41.4c-29.6,0-60.7,19.5-60.7,69.3c0,35.5,18.5,69.5,59.7,69.5c22.9,0,45.1-13.8,53-37.2
			C1214.8,448.8,1205.9,445.9,1202.7,453.3z M1137.1,402.7c1-12.6,2.5-35.5,19.7-35.5c12.3,0,18.5,8.9,18.2,23.4
			c0,12.8-5.9,21.2-19.2,21h-19C1136.9,408.6,1137.1,405.7,1137.1,402.7z"/>
		<path class="st1" d="M1259.7,383.7c0-10.9,9.6-16.8,19.2-16.8c9.9,0,20.2,6.9,20.2,22.9c0,11.8,8.9,16.3,16.8,16.3
			c9.6,0,15.3-8.1,15.3-16c0-23.4-26.6-35.5-53.5-35.5c-27.4,0-55,12.3-55,39c0.2,46.9,76.7,46.6,76.7,70.8
			c0,11.3-9.1,16.8-23.2,16.8c-13.3,0-26.4-7.6-26.4-22.9c0-11.8-8.9-16.3-16.8-16.3c-9.6,0-15.3,8.1-15.3,16
			c0,23.7,28.6,35.5,57.7,35.5c30.1,0,60.9-10.1,60.9-39C1336.3,409.9,1259.4,411.8,1259.7,383.7z"/>
		<path class="st1" d="M852.2,474c-5.2,0-5.9-5.4-6.2-11.3v-51c-0.2-33.5-22.2-57.2-59.7-57.5c-22.2,0-55.2,12.1-54.5,37.5
			c0.2,7.9,5.9,15.3,15.5,15.3c8.6,0,16.5-6.4,16.5-15.3c0-13.3,5.9-25.2,21-25.2c24.2,0,23.7,25.9,23.9,43.2v11.1
			c-9.6-4.4-21.5-6.9-33.5-7.2c-23.7-0.5-53.3,11.3-53.3,39.2c0,12.6,5.9,22.7,14.8,29.6c9.1,7.2,21.2,10.6,33.5,10.6
			c14.5,0,28.9-4.9,38.7-14.5c0.5,5.2,2.5,7.6,10.6,7.6h32.5C861.3,486.1,861.3,474,852.2,474z M783.9,475.7
			c-14.1,0-24.9-11.1-24.9-25.2c0-15,13.6-24.4,26.6-24.4c7.9,0,16.3,2.7,23.2,8.6l0.2,28.9C802.1,472,792.7,475.7,783.9,475.7z"/>
	</g>
</g>
</svg>
