<svg version="1.1" id="Слой_1" xmlns="http://www.w3.org/2000/svg" xmlns:xlink="http://www.w3.org/1999/xlink" x="0" y="0" viewBox="0 0 1338.5 512.8" xml:space="preserve"><style>.st1{fill:#c06a79}</style><defs><path id="SVGID_1_" d="M-596.3-69.1h340.2v815h-340.2z"/></defs><clipPath id="SVGID_2_"><use xlink:href="#SVGID_1_" overflow="visible"/></clipPath><g clip-path="url(#SVGID_2_)"><defs><path id="SVGID_3_" d="M-596.3-69.1h340.2v815h-340.2z"/></defs><clipPath id="SVGID_4_"><use xlink:href="#SVGID_3_" overflow="visible"/></clipPath></g><path class="st1" d="M222.9 429c-6.9 20.7-18.7 45.3-37.7 60.1-5 3.8-10.5 7.1-16.4 9.7 2.8 1 5.6 2 8.4 2.9 16.9 5.4 34.6 9.1 52.9 10.8-5-23.1-7.9-52.7-7.2-83.5z"/><path class="st1" d="M255.1 1.1C113.6 1.1-1.1 115.9-1.1 257.4c0 80.7 37.3 152.7 95.6 199.7 7.3-16.5 17.6-33.2 31.9-44.2 33.4-25.8 74.5-24.9 87-23.8-16-2.8-87.1-17-126.2-67.6C44 265.6 56.4 165 56.4 165s100.5 13.4 143.6 69.2c29.7 38.4 33.7 98.7 33.2 132.6 4.2-8.7 11.2-20.1 25-42 45-69.5 52.2-68.5 48.2-111.2-3.6-28.9-71.2-27.7-38-121.2-28.9 1.6-43.3 48.3-23.1 72.6 27.5 33.3 38.3 44.7 31.3 59.9-12.2 26.8-67.7 25.6-46.8-7 10.2 22.6 25.9 4.3 17.5-6.3-19.9-25.2-85.1-48.8-50.7-121.6 4.6-10.6 13-18.8 20-27.9 15.4-19.9 49.3-23.3 66.9-4.4.6-3.7-1.3-8.7 2.5-11.2 4.4-.2 8.8.3 12.9 2 0 3.7-.4 7.4-1 11.1 51.6-22.5 87.8 21.1 95.7 25.5 10.8 3.6 25.3-1.1 33.9 34.6 1.8 7.9-9.6 8.1-12.4 13.8-.7 4.3-.3 8.7-1 13-1.9 4.6-4.1 9.2-3.9 14.3 3.2-1 6.4-2.1 9.7-3-2.6 2.3-5.1 4.6-7.6 6.9 2.7 5.8 7.3 10.3 11.5 15 .6 6-9.1 7.1-8.3 13.2.9 3.3 2.8 6.1 4.4 9.1-1.6 2-3.2 4.1-4.8 6.2.4 1.9.7 3.8 1.1 5.8-3.3 3.3-8.3 6.3-7.9 11.6-2.1 19 4.3 15.9-45.9 6.9-5.6-1.3-16.4 29.9-19 41.2-5.9 36.5 33.3 47.8 53.2 81.5 26.7 45.2 30.6 76.1 23.9 98.2 10.5-8.8 20.2-18.5 29.1-28.9 38.5-44.9 61.8-103.2 61.8-166.9 0-141.7-114.7-256.5-256.3-256.5zM691.5 83c15.5 0 25.4-9.1 25.4-22.7s-9.9-22.4-25.4-22.4c-15.3 0-25.6 8.9-25.6 22.4 0 13.6 10.4 22.7 25.6 22.7zm-110 138.3c-9.1 0-9.1 12.3 0 12.3H746c10.1 0 12.1-.7 12.1-8.4l.2-32.1c0-4.2-7.2-8.1-12.6 0-4.7 7.4-8.9 13.1-12.3 18.2-5.4 8.6-12.1 9.9-26.1 9.9h-72.8c-7.4 0-9.6-2-9.6-9.4V59.6c-.2-4.2 1.7-9.4 6.4-9.4 9.1 0 9.1-12.3 0-12.3h-49.6c-9.1 0-9.1 12.3 0 12.3 4.7 0 6.2 5.2 6.2 11.1v148.9c0 6-1.7 11.1-6.4 11.1z"/><path class="st1" d="M673.5 134.3c4.7 0 6.2 4.9 6.4 10.8l.2 41.7c.2 5.9-1.5 11.1-6.2 11.1-9.1 0-9.1 12.3 0 12.3h29.6c13.6 0 13.6-6.4 13.6-23.4l-.2-77.7c0-7.4-5.2-9.1-12.6-5.4l-30.8 15.8c-5.4 2.5-7.9 4.4-7.9 8.9.1 3.4 2.3 5.9 7.9 5.9zm91.5-13.6h6.7v81.6c0 20 7.9 38.5 34.3 38.2 19.5-.2 29.6-12.6 29.6-30.8 0-10.4-12.3-10.1-12.3 0 0 17.5-14.5 17.5-14.5 4.2v-71.8c0-18.2 2.2-21.5 20.5-21.5 8.6 0 8.6-12.3 0-12.3h-20.5l-.2-21.5c-.2-8.9-11.6-11.6-14.8 0-2.7 10.1-8.9 21.5-21.7 21.5H765c-8.7.1-8.7 12.4 0 12.4zm84.8 0h6.7v81.6c0 20 7.9 38.5 34.3 38.2 19.5-.2 29.6-12.6 29.6-30.8 0-10.4-12.3-10.1-12.3 0 0 17.5-14.5 17.5-14.5 4.2v-71.8c0-18.2 2.2-21.5 20.5-21.5 8.6 0 8.6-12.3 0-12.3h-20.5l-.2-21.5c-.2-8.9-11.6-11.6-14.8 0-2.7 10.1-8.9 21.5-21.7 21.5H850c-8.8.1-8.8 12.4-.2 12.4zm135.4 100.6c-4.7 0-6.2-5.2-6.2-11.1V27.8c0-8.1-6.7-8.9-11.3-6.4l-31.8 16.5c-5.4 2.5-7.9 4.4-7.9 8.9 0 3.7 2 5.9 7.9 5.9 4.7 0 6.2 5.2 6.2 11.1v146.5c0 5.9-1.5 11.1-6.2 11.1-9.1 0-9.1 12.3 0 12.3h49.3c9.1 0 9.1-12.4 0-12.4zm116.1-20.9c-7.2 16.3-19.5 22.9-31.3 22.9-27.4 0-34.8-26.9-34.8-52.3h32.8c31.3 0 42.2-11.1 42.2-27.9 0-28.8-21.7-41.4-51.3-41.4s-60.7 19.5-60.7 69.3c0 35.5 18.5 69.5 59.7 69.5 22.9 0 45.1-13.8 53-37.2 2.5-7.4-6.4-10.3-9.6-2.9zm-65.6-50.6c1-12.6 2.5-35.5 19.7-35.5 12.3 0 18.5 8.9 18.2 23.4 0 12.8-5.9 21.2-19.2 21h-19c.1-3 .3-5.9.3-8.9zM633.8 303.1H692c14.1 0 20.5 1.2 26.1 9.9 3.5 5.2 7.4 10.9 12.3 18.2 5.2 8.1 12.3 4.2 12.3 0v-32.1c0-7.6-2.2-8.4-12.3-8.4H580.8c-9.1 0-9.1 12.3 0 12.3 4.7 0 6.4 5.2 6.4 11.1V463c0 5.9-1.7 11.1-6.4 11.1-9.1 0-9.1 12.3 0 12.3h49.6c9.1 0 9.1-12.3 0-12.3-4.7 0-6.2-5.2-6.2-11.1v-66.8h41.9c14.1 0 20.5 1.2 26.1 9.9 3.5 5.2 7.4 10.6 12.3 18.2 5.2 8.1 13.1 4.2 12.3 0l-9.9-69.3c-.7-4.2-7.2-8.1-12.6 0-4.9 7.6-8.9 13.1-12.3 18.5-5.7 8.6-12.1 9.9-26.1 9.9h-31.8v-71c.1-7.3 2.3-9.3 9.7-9.3zM890 290.8c-15.3 0-25.6 8.9-25.6 22.4 0 13.6 10.4 22.7 25.6 22.7 15.5 0 25.6-9.1 25.6-22.7.1-13.6-10-22.4-25.6-22.4zm31.8 183.4c-4.4 0-6.2-5.2-6.2-11.1V362c0-7.4-5.2-9.1-12.8-5.4l-30.6 15.8c-5.4 2.5-7.9 4.4-7.9 8.9 0 3.5 2 5.9 7.9 5.9 4.7 0 6.2 4.9 6.2 10.8l.5 65.1c0 5.9-1.7 11.1-6.2 11.1-9.4 0-9.4 12.3 0 12.3h49.1c9.4.1 9.4-12.3 0-12.3zM1034 333.4c13.3 0 14.5 10.9 26.4 10.9 19.5 0 24.2-22.7 10.8-32.5-17.8-13.3-63.6-6.7-85.1 45.1-2-2.7-6.2-3-11.3-.2l-30.6 15.8c-5.4 2.5-7.9 4.4-7.9 8.9 0 3.5 2 5.9 7.9 5.9 4.7 0 6.2 4.9 6.2 10.8l.5 65.1c0 5.9-1.7 11.1-6.2 11.1-9.4 0-9.4 12.3 0 12.3h49.1c9.4 0 9.4-12.3 0-12.3-4.4 0-6.2-5.2-6.2-11.1v-66.6c1.6-44.2 29.2-63.2 46.4-63.2z"/><path class="st1" d="M1084.1 474.2c-4.4 0-6.2-5.2-6.2-11.1V362c0-7.4-5.2-9.1-12.8-5.4l-30.6 15.8c-5.4 2.5-7.9 4.4-7.9 8.9 0 3.5 2 5.9 7.9 5.9 4.7 0 6.2 4.9 6.2 10.8l.5 65.1c0 5.9-1.7 11.1-6.2 11.1-9.4 0-9.4 12.3 0 12.3h49.1c9.4.1 9.4-12.3 0-12.3zm118.6-20.9c-7.2 16.3-19.5 22.9-31.3 22.9-27.4 0-34.8-26.9-34.8-52.3h32.8c31.3 0 42.2-11.1 42.2-27.9 0-28.8-21.7-41.4-51.3-41.4-29.6 0-60.7 19.5-60.7 69.3 0 35.5 18.5 69.5 59.7 69.5 22.9 0 45.1-13.8 53-37.2 2.5-7.4-6.4-10.3-9.6-2.9zm-65.6-50.6c1-12.6 2.5-35.5 19.7-35.5 12.3 0 18.5 8.9 18.2 23.4 0 12.8-5.9 21.2-19.2 21h-19c.1-3 .3-5.9.3-8.9zm122.6-19c0-10.9 9.6-16.8 19.2-16.8 9.9 0 20.2 6.9 20.2 22.9 0 11.8 8.9 16.3 16.8 16.3 9.6 0 15.3-8.1 15.3-16 0-23.4-26.6-35.5-53.5-35.5-27.4 0-55 12.3-55 39 .2 46.9 76.7 46.6 76.7 70.8 0 11.3-9.1 16.8-23.2 16.8-13.3 0-26.4-7.6-26.4-22.9 0-11.8-8.9-16.3-16.8-16.3-9.6 0-15.3 8.1-15.3 16 0 23.7 28.6 35.5 57.7 35.5 30.1 0 60.9-10.1 60.9-39 0-44.6-76.9-42.7-76.6-70.8zM852.2 474c-5.2 0-5.9-5.4-6.2-11.3v-51c-.2-33.5-22.2-57.2-59.7-57.5-22.2 0-55.2 12.1-54.5 37.5.2 7.9 5.9 15.3 15.5 15.3 8.6 0 16.5-6.4 16.5-15.3 0-13.3 5.9-25.2 21-25.2 24.2 0 23.7 25.9 23.9 43.2v11.1c-9.6-4.4-21.5-6.9-33.5-7.2-23.7-.5-53.3 11.3-53.3 39.2 0 12.6 5.9 22.7 14.8 29.6 9.1 7.2 21.2 10.6 33.5 10.6 14.5 0 28.9-4.9 38.7-14.5.5 5.2 2.5 7.6 10.6 7.6H852c9.3 0 9.3-12.1.2-12.1zm-68.3 1.7c-14.1 0-24.9-11.1-24.9-25.2 0-15 13.6-24.4 26.6-24.4 7.9 0 16.3 2.7 23.2 8.6l.2 28.9c-6.9 8.4-16.3 12.1-25.1 12.1z"/></svg>