<svg xmlns="http://www.w3.org/2000/svg" viewBox="0 0 476.737 476.737" width="512" height="512"><path d="M238.369 0C106.726 0 0 106.726 0 238.369c0 131.675 106.726 238.369 238.369 238.369 131.675 0 238.369-106.694 238.369-238.369C476.737 106.726 370.043 0 238.369 0zm50.852 330.252c6.198 6.198 6.198 16.273 0 22.47s-16.273 6.198-22.47 0L163.68 249.651c-3.115-3.115-4.64-7.183-4.64-11.283s1.526-8.168 4.64-11.283l103.07-103.07c6.198-6.198 16.273-6.198 22.47 0 6.198 6.198 6.198 16.273 0 22.47l-91.883 91.883 91.884 91.884z" fill="#29713c"/></svg>