<?xml version="1.0" encoding="iso-8859-1"?>
<!-- Generator: Adobe Illustrator 18.0.0, SVG Export Plug-In . SVG Version: 6.00 Build 0)  -->
<!DOCTYPE svg PUBLIC "-//W3C//DTD SVG 1.1//EN" "http://www.w3.org/Graphics/SVG/1.1/DTD/svg11.dtd">
<svg xmlns="http://www.w3.org/2000/svg" xmlns:xlink="http://www.w3.org/1999/xlink" version="1.1" id="Capa_1" x="0px" y="0px" viewBox="0 0 481.459 481.459" style="enable-background:new 0 0 481.459 481.459;" xml:space="preserve" width="512px" height="512px">
<g>
	<path d="M357.174,341.147c-7.049-9.309-12.148-20.086-14.428-31.973H39.416c-4.105,0-7.443-3.345-7.443-7.442V69.861   c0-4.106,3.338-7.441,7.443-7.441h396.807c4.109,0,7.443,3.335,7.443,7.441v151.506c12.352,4.177,23.273,11.212,31.973,20.566   V69.861c0-21.737-17.686-39.414-39.416-39.414H39.416C17.685,30.447,0,48.124,0,69.861v231.871   c0,21.735,17.685,39.415,39.416,39.415h130.232v24.601c-25.065,2.714-44.699,23.751-44.699,49.522v14.689   c0,6.625,5.367,11.991,11.988,11.991h201.781c6.623,0,11.988-5.366,11.988-11.991V415.27c0-25.781-19.67-46.825-44.752-49.53   v-24.593H357.174z M326.727,415.27v2.7H148.926v-2.7c0-14.381,11.709-26.094,26.09-26.094h125.607   C315.017,389.176,326.727,400.889,326.727,415.27z" fill="#e44c65"/>
	<path d="M382.834,362.93v83.621c0,1.88,1.18,3.546,2.928,4.191c0.504,0.183,1.022,0.27,1.527,0.27c1.305,0,2.566-0.551,3.43-1.581   l24.783-29.434c0.863-0.999,2.09-1.581,3.43-1.581c1.305,0,2.566,0.582,3.414,1.581l24.783,29.434   c0.863,1.03,2.105,1.581,3.41,1.581c0.506,0,1.025-0.087,1.529-0.276c1.762-0.639,2.926-2.305,2.926-4.185V362.93   c-10.824,5.75-22.988,9.306-36.076,9.306C405.807,372.236,393.658,368.672,382.834,362.93z" fill="#e44c65"/>
	<path d="M418.918,232.059c-34.539,0-62.529,27.999-62.529,62.536c0,34.546,27.99,62.538,62.529,62.538   c34.533,0,62.541-27.992,62.541-62.538C481.459,260.058,453.451,232.059,418.918,232.059z M452.853,286.924L439.4,300.032   c-0.736,0.731-1.086,1.785-0.912,2.823l3.162,18.505c0.205,1.202-0.301,2.416-1.275,3.131c-0.99,0.716-2.279,0.811-3.381,0.235   l-16.598-8.732c-0.932-0.478-2.047-0.478-2.975,0l-16.602,8.732c-1.102,0.575-2.393,0.48-3.381-0.235   c-0.977-0.715-1.48-1.929-1.277-3.131l3.164-18.505c0.174-1.038-0.176-2.092-0.912-2.823l-13.453-13.107   c-0.863-0.849-1.195-2.115-0.803-3.279c0.375-1.157,1.369-1.999,2.582-2.182l18.563-2.697c1.059-0.15,1.955-0.81,2.426-1.754   l8.305-16.835c0.555-1.094,1.656-1.788,2.885-1.788c1.207,0,2.309,0.694,2.861,1.788l8.307,16.835   c0.475,0.944,1.369,1.603,2.426,1.754l18.566,2.697c1.207,0.183,2.203,1.025,2.576,2.182   C454.053,284.809,453.719,286.076,452.853,286.924z" fill="#e44c65"/>
</g>
<g>
</g>
<g>
</g>
<g>
</g>
<g>
</g>
<g>
</g>
<g>
</g>
<g>
</g>
<g>
</g>
<g>
</g>
<g>
</g>
<g>
</g>
<g>
</g>
<g>
</g>
<g>
</g>
<g>
</g>
</svg>
