<?xml version="1.0" encoding="iso-8859-1"?>
<!-- Generator: Adobe Illustrator 18.1.1, SVG Export Plug-In . SVG Version: 6.00 Build 0)  -->
<svg xmlns="http://www.w3.org/2000/svg" xmlns:xlink="http://www.w3.org/1999/xlink" version="1.1" id="Capa_1" x="0px" y="0px" viewBox="0 0 612 612" style="enable-background:new 0 0 612 612;" xml:space="preserve" width="512px" height="512px">
<g>
	<path d="M571.405,279.306h-0.931v-82.384c0-37.807-30.757-68.566-68.563-68.566h-39.265L404.934,14.06   c-1.841-3.646-5.064-6.409-8.955-7.669c-3.888-1.262-8.116-0.916-11.749,0.962L150.013,128.358H68.563   C30.757,128.358,0,159.118,0,196.925V537.79c0,37.807,30.757,68.566,68.563,68.566h433.347c37.806,0,68.563-30.76,68.563-68.566   v-82.384h0.931c22.384,0,40.595-18.211,40.595-40.595V319.9C612,297.52,593.789,279.306,571.405,279.306z M384.557,41.673   l43.769,86.685H216.763L384.557,41.673z M581.363,414.812c0,5.49-4.467,9.957-9.957,9.957H397.027c-5.49,0-9.957-4.467-9.957-9.957   V319.9c0-5.49,4.467-9.957,9.957-9.957h174.379c5.49,0,9.957,4.467,9.957,9.957V414.812L581.363,414.812z M491.466,367.358   c0,21.091-17.157,38.245-38.245,38.245c-21.088,0-38.242-17.157-38.242-38.245s17.157-38.245,38.242-38.245   C474.31,329.11,491.466,346.267,491.466,367.358z" fill="#e44c65"/>
</g>
<g>
</g>
<g>
</g>
<g>
</g>
<g>
</g>
<g>
</g>
<g>
</g>
<g>
</g>
<g>
</g>
<g>
</g>
<g>
</g>
<g>
</g>
<g>
</g>
<g>
</g>
<g>
</g>
<g>
</g>
</svg>
