<svg xmlns="http://www.w3.org/2000/svg" viewBox="0 0 512.479 512.479"><g fill="#ff9800"><path d="M256.239 277.333c76.583 0 138.667-62.083 138.667-138.667S332.823 0 256.239 0 117.573 62.083 117.573 138.667c.094 76.544 62.122 138.572 138.666 138.666zm0-213.333c41.237 0 74.667 33.429 74.667 74.667s-33.429 74.667-74.667 74.667-74.667-33.429-74.667-74.667S215.002 64 256.239 64z"/><path d="M392.069 343.04a53.72 53.72 0 0024.171-44.8 38.698 38.698 0 00-21.696-35.307 40.534 40.534 0 00-42.667 4.011c-56.983 41.543-134.27 41.543-191.253 0a40.747 40.747 0 00-42.667-4.011 38.74 38.74 0 00-21.717 35.285 53.78 53.78 0 0024.171 44.8 246.275 246.275 0 0062.507 29.867 212.318 212.318 0 0011.627 3.243l-64.469 63.04c-16.912 16.409-17.321 43.42-.912 60.333 16.409 16.912 43.42 17.321 60.333.912.352-.342.698-.689 1.038-1.043l65.707-68.011 65.835 68.139c16.395 16.925 43.407 17.355 60.332.96 16.925-16.395 17.355-43.407.96-60.332a42.943 42.943 0 00-1.047-1.044l-64.363-62.976a270.92 270.92 0 0011.669-3.264 245.352 245.352 0 0062.441-29.802z"/></g></svg>