<svg xmlns="http://www.w3.org/2000/svg" width="512" height="512"><g fill="#FFF"><path d="M469.333 358.4H230.4c-4.71 0-8.533 3.823-8.533 8.533s3.823 8.533 8.533 8.533h238.933c4.71 0 8.533-3.823 8.533-8.533s-3.822-8.533-8.533-8.533zM435.2 187.733h-34.133c-4.71 0-8.533 3.823-8.533 8.533s3.823 8.533 8.533 8.533H435.2c4.71 0 8.533-3.823 8.533-8.533s-3.823-8.533-8.533-8.533zm0 102.4h-34.133c-4.71 0-8.533 3.823-8.533 8.533s3.823 8.533 8.533 8.533H435.2c4.71 0 8.533-3.823 8.533-8.533s-3.823-8.533-8.533-8.533zm0-51.2h-34.133c-4.71 0-8.533 3.823-8.533 8.533s3.823 8.533 8.533 8.533H435.2c4.71 0 8.533-3.823 8.533-8.533s-3.823-8.533-8.533-8.533zm-221.867 153.6H204.8V25.6c0-14.114-11.486-25.6-25.6-25.6H76.8C62.686 0 51.2 11.486 51.2 25.6v341.333c0 4.71 3.823 8.533 8.533 8.533s8.533-3.823 8.533-8.533V25.6c0-4.702 3.831-8.533 8.533-8.533h102.4c4.702 0 8.533 3.831 8.533 8.533v409.6c0 4.702-3.831 8.533-8.533 8.533H76.8c-4.702 0-8.533-3.831-8.533-8.533v-34.133a8.536 8.536 0 00-8.533-8.533H42.667c-15.309 0-25.6-10.291-25.6-25.6v-307.2c0-9.114 4.796-17.348 12.826-22.025a8.54 8.54 0 003.081-11.674c-2.381-4.07-7.603-5.453-11.665-3.081C8.158 30.609 0 44.706 0 59.733v307.2C0 391.654 17.946 409.6 42.667 409.6H51.2v25.6c0 14.114 11.486 25.6 25.6 25.6h102.4c14.114 0 25.6-11.486 25.6-25.6v-25.6h8.533c4.71 0 8.533-3.823 8.533-8.533s-3.822-8.534-8.533-8.534zm238.934 0a8.53 8.53 0 00-8.533 8.533v93.867H256v-93.867c0-4.719-3.823-8.533-8.533-8.533s-8.533 3.814-8.533 8.533v102.4a8.536 8.536 0 008.533 8.533h204.8a8.536 8.536 0 008.533-8.533v-102.4a8.531 8.531 0 00-8.533-8.533z"/><path d="M298.667 460.8H384a8.536 8.536 0 008.533-8.533 8.536 8.536 0 00-8.533-8.533h-85.333a8.536 8.536 0 00-8.533 8.533c-.001 4.71 3.822 8.533 8.533 8.533zm0-34.133h102.4c4.71 0 8.533-3.823 8.533-8.533s-3.823-8.533-8.533-8.533h-102.4c-4.71 0-8.533 3.823-8.533 8.533s3.822 8.533 8.533 8.533zM264.533 256h34.133c4.71 0 8.533-3.823 8.533-8.533s-3.823-8.533-8.533-8.533h-34.133c-4.71 0-8.533 3.823-8.533 8.533s3.823 8.533 8.533 8.533zm0-51.2h34.133c4.71 0 8.533-3.823 8.533-8.533s-3.823-8.533-8.533-8.533h-34.133c-4.71 0-8.533 3.823-8.533 8.533s3.823 8.533 8.533 8.533zm0 102.4h34.133c4.71 0 8.533-3.823 8.533-8.533s-3.823-8.533-8.533-8.533h-34.133c-4.71 0-8.533 3.823-8.533 8.533s3.823 8.533 8.533 8.533zm204.8-290.133H230.4a8.536 8.536 0 00-8.533 8.533 8.536 8.536 0 008.533 8.533h238.933c14.114 0 25.6 11.486 25.6 25.6v315.733c0 9.045-4.847 17.51-12.663 22.093a8.535 8.535 0 00-3.038 11.682 8.527 8.527 0 0011.682 3.037C503.919 404.642 512 390.545 512 375.467V59.733c0-23.526-19.14-42.666-42.667-42.666z"/><path d="M366.933 238.933H332.8c-4.71 0-8.533 3.823-8.533 8.533S328.09 256 332.8 256h34.133c4.71 0 8.533-3.823 8.533-8.533s-3.822-8.534-8.533-8.534zm76.8-145.066a8.536 8.536 0 00-8.533-8.533H264.533A8.536 8.536 0 00256 93.867v51.2a8.536 8.536 0 008.533 8.533H435.2a8.536 8.536 0 008.533-8.533v-51.2zm-17.066 42.666h-153.6V102.4h153.6v34.133zm-59.734 153.6H332.8c-4.71 0-8.533 3.823-8.533 8.533s3.823 8.533 8.533 8.533h34.133c4.71 0 8.533-3.823 8.533-8.533s-3.822-8.533-8.533-8.533zm0-102.4H332.8c-4.71 0-8.533 3.823-8.533 8.533s3.823 8.533 8.533 8.533h34.133c4.71 0 8.533-3.823 8.533-8.533s-3.822-8.533-8.533-8.533z"/></g></svg>