<?xml version="1.0" encoding="iso-8859-1"?>
<!-- Generator: Adobe Illustrator 19.0.0, SVG Export Plug-In . SVG Version: 6.00 Build 0)  -->
<svg xmlns="http://www.w3.org/2000/svg" xmlns:xlink="http://www.w3.org/1999/xlink" version="1.1" id="Layer_1" x="0px" y="0px" viewBox="0 0 512 512" style="enable-background:new 0 0 512 512;" xml:space="preserve" width="512px" height="512px">
<g>
	<g>
		<g>
			<path d="M469.333,358.4H230.4c-4.71,0-8.533,3.823-8.533,8.533s3.823,8.533,8.533,8.533h238.933c4.71,0,8.533-3.823,8.533-8.533     S474.044,358.4,469.333,358.4z" fill="#FFFFFF"/>
			<path d="M435.2,187.733h-34.133c-4.71,0-8.533,3.823-8.533,8.533s3.823,8.533,8.533,8.533H435.2c4.71,0,8.533-3.823,8.533-8.533     S439.91,187.733,435.2,187.733z" fill="#FFFFFF"/>
			<path d="M435.2,290.133h-34.133c-4.71,0-8.533,3.823-8.533,8.533s3.823,8.533,8.533,8.533H435.2c4.71,0,8.533-3.823,8.533-8.533     S439.91,290.133,435.2,290.133z" fill="#FFFFFF"/>
			<path d="M435.2,238.933h-34.133c-4.71,0-8.533,3.823-8.533,8.533s3.823,8.533,8.533,8.533H435.2c4.71,0,8.533-3.823,8.533-8.533     S439.91,238.933,435.2,238.933z" fill="#FFFFFF"/>
			<path d="M213.333,392.533H204.8V25.6c0-14.114-11.486-25.6-25.6-25.6H76.8C62.686,0,51.2,11.486,51.2,25.6v341.333     c0,4.71,3.823,8.533,8.533,8.533s8.533-3.823,8.533-8.533V25.6c0-4.702,3.831-8.533,8.533-8.533h102.4     c4.702,0,8.533,3.831,8.533,8.533v409.6c0,4.702-3.831,8.533-8.533,8.533H76.8c-4.702,0-8.533-3.831-8.533-8.533v-34.133     c0-4.71-3.823-8.533-8.533-8.533H42.667c-15.309,0-25.6-10.291-25.6-25.6v-307.2c0-9.114,4.796-17.348,12.826-22.025     c4.07-2.372,5.453-7.595,3.081-11.674c-2.381-4.07-7.603-5.453-11.665-3.081C8.158,30.609,0,44.706,0,59.733v307.2     C0,391.654,17.946,409.6,42.667,409.6H51.2v25.6c0,14.114,11.486,25.6,25.6,25.6h102.4c14.114,0,25.6-11.486,25.6-25.6v-25.6     h8.533c4.71,0,8.533-3.823,8.533-8.533S218.044,392.533,213.333,392.533z" fill="#FFFFFF"/>
			<path d="M452.267,392.533c-4.71,0-8.533,3.814-8.533,8.533v93.867H256v-93.867c0-4.719-3.823-8.533-8.533-8.533     s-8.533,3.814-8.533,8.533v102.4c0,4.71,3.823,8.533,8.533,8.533h204.8c4.71,0,8.533-3.823,8.533-8.533v-102.4     C460.8,396.348,456.977,392.533,452.267,392.533z" fill="#FFFFFF"/>
			<path d="M298.667,460.8H384c4.71,0,8.533-3.823,8.533-8.533c0-4.71-3.823-8.533-8.533-8.533h-85.333     c-4.71,0-8.533,3.823-8.533,8.533C290.133,456.977,293.956,460.8,298.667,460.8z" fill="#FFFFFF"/>
			<path d="M298.667,426.667h102.4c4.71,0,8.533-3.823,8.533-8.533s-3.823-8.533-8.533-8.533h-102.4     c-4.71,0-8.533,3.823-8.533,8.533S293.956,426.667,298.667,426.667z" fill="#FFFFFF"/>
			<path d="M264.533,256h34.133c4.71,0,8.533-3.823,8.533-8.533s-3.823-8.533-8.533-8.533h-34.133c-4.71,0-8.533,3.823-8.533,8.533     S259.823,256,264.533,256z" fill="#FFFFFF"/>
			<path d="M264.533,204.8h34.133c4.71,0,8.533-3.823,8.533-8.533s-3.823-8.533-8.533-8.533h-34.133     c-4.71,0-8.533,3.823-8.533,8.533S259.823,204.8,264.533,204.8z" fill="#FFFFFF"/>
			<path d="M264.533,307.2h34.133c4.71,0,8.533-3.823,8.533-8.533s-3.823-8.533-8.533-8.533h-34.133     c-4.71,0-8.533,3.823-8.533,8.533S259.823,307.2,264.533,307.2z" fill="#FFFFFF"/>
			<path d="M469.333,17.067H230.4c-4.71,0-8.533,3.823-8.533,8.533c0,4.71,3.823,8.533,8.533,8.533h238.933     c14.114,0,25.6,11.486,25.6,25.6v315.733c0,9.045-4.847,17.51-12.663,22.093c-4.062,2.389-5.427,7.612-3.038,11.682     c1.587,2.705,4.437,4.215,7.364,4.215c1.468,0,2.961-0.384,4.318-1.178C503.919,404.642,512,390.545,512,375.467V59.733     C512,36.207,492.86,17.067,469.333,17.067z" fill="#FFFFFF"/>
			<path d="M366.933,238.933H332.8c-4.71,0-8.533,3.823-8.533,8.533S328.09,256,332.8,256h34.133c4.71,0,8.533-3.823,8.533-8.533     S371.644,238.933,366.933,238.933z" fill="#FFFFFF"/>
			<path d="M443.733,93.867c0-4.71-3.823-8.533-8.533-8.533H264.533c-4.71,0-8.533,3.823-8.533,8.533v51.2     c0,4.71,3.823,8.533,8.533,8.533H435.2c4.71,0,8.533-3.823,8.533-8.533V93.867z M426.667,136.533h-153.6V102.4h153.6V136.533z" fill="#FFFFFF"/>
			<path d="M366.933,290.133H332.8c-4.71,0-8.533,3.823-8.533,8.533s3.823,8.533,8.533,8.533h34.133c4.71,0,8.533-3.823,8.533-8.533     S371.644,290.133,366.933,290.133z" fill="#FFFFFF"/>
			<path d="M366.933,187.733H332.8c-4.71,0-8.533,3.823-8.533,8.533s3.823,8.533,8.533,8.533h34.133c4.71,0,8.533-3.823,8.533-8.533     S371.644,187.733,366.933,187.733z" fill="#FFFFFF"/>
		</g>
	</g>
</g>
<g>
</g>
<g>
</g>
<g>
</g>
<g>
</g>
<g>
</g>
<g>
</g>
<g>
</g>
<g>
</g>
<g>
</g>
<g>
</g>
<g>
</g>
<g>
</g>
<g>
</g>
<g>
</g>
<g>
</g>
</svg>
