<svg xmlns="http://www.w3.org/2000/svg" viewBox="0 0 481.459 481.459" width="512" height="512"><g fill="#e44c65"><path d="M357.174 341.147c-7.049-9.309-12.148-20.086-14.428-31.973H39.416c-4.105 0-7.443-3.345-7.443-7.442V69.861c0-4.106 3.338-7.441 7.443-7.441h396.807a7.445 7.445 0 017.443 7.441v151.506c12.352 4.177 23.273 11.212 31.973 20.566V69.861c0-21.737-17.686-39.414-39.416-39.414H39.416C17.685 30.447 0 48.124 0 69.861v231.871c0 21.735 17.685 39.415 39.416 39.415h130.232v24.601c-25.065 2.714-44.699 23.751-44.699 49.522v14.689c0 6.625 5.367 11.991 11.988 11.991h201.781c6.623 0 11.988-5.366 11.988-11.991V415.27c0-25.781-19.67-46.825-44.752-49.53v-24.593h51.22zm-30.447 74.123v2.7H148.926v-2.7c0-14.381 11.709-26.094 26.09-26.094h125.607c14.394 0 26.104 11.713 26.104 26.094z"/><path d="M382.834 362.93v83.621c0 1.88 1.18 3.546 2.928 4.191.504.183 1.022.27 1.527.27a4.455 4.455 0 003.43-1.581l24.783-29.434a4.503 4.503 0 013.43-1.581c1.305 0 2.566.582 3.414 1.581l24.783 29.434a4.413 4.413 0 003.41 1.581c.506 0 1.025-.087 1.529-.276a4.437 4.437 0 002.926-4.185V362.93c-10.824 5.75-22.988 9.306-36.076 9.306-13.111 0-25.26-3.564-36.084-9.306zm36.084-130.871c-34.539 0-62.529 27.999-62.529 62.536 0 34.546 27.99 62.538 62.529 62.538 34.533 0 62.541-27.992 62.541-62.538 0-34.537-28.008-62.536-62.541-62.536zm33.935 54.865L439.4 300.032a3.235 3.235 0 00-.912 2.823l3.162 18.505a3.226 3.226 0 01-1.275 3.131 3.196 3.196 0 01-3.381.235l-16.598-8.732a3.265 3.265 0 00-2.975 0l-16.602 8.732a3.2 3.2 0 01-3.381-.235 3.225 3.225 0 01-1.277-3.131l3.164-18.505a3.235 3.235 0 00-.912-2.823l-13.453-13.107a3.179 3.179 0 01-.803-3.279 3.206 3.206 0 012.582-2.182l18.563-2.697a3.209 3.209 0 002.426-1.754l8.305-16.835a3.23 3.23 0 012.885-1.788c1.207 0 2.309.694 2.861 1.788l8.307 16.835a3.221 3.221 0 002.426 1.754l18.566 2.697a3.203 3.203 0 012.576 2.182c.399 1.163.065 2.43-.801 3.278z"/></g></svg>