<?xml version="1.0" encoding="iso-8859-1"?>
<!-- Generator: Adobe Illustrator 19.0.0, SVG Export Plug-In . SVG Version: 6.00 Build 0)  -->
<svg version="1.1" id="Layer_1" xmlns="http://www.w3.org/2000/svg" xmlns:xlink="http://www.w3.org/1999/xlink" x="0px" y="0px"
	 viewBox="0 0 512 512" style="enable-background:new 0 0 512 512;" xml:space="preserve">
<path style="fill:#57A4FF;" d="M304.744,171.006l-46.626,57.171V55.149H51.268L8.175,167.472l39.695,309.46
	c1.943,15.148,14.838,27.479,30.111,27.479h202.49l0,0c-0.342-0.107,0.353,0.122,0,0c0.346,0.016-0.35,0,0,0
	c7.328,0,14.068-3.612,18.213-9.654l157.384-219.912L304.744,171.006z"/>
<polygon style="fill:#2488FF;" points="291.511,186.698 443.298,291.937 456.068,274.844 304.744,171.006 "/>
<path style="fill:#D8D7DA;" d="M337.155,109.029l-39.29,57.258l165.081,113.278l39.29-57.258c3.162-4.608,1.989-10.907-2.618-14.069
	L351.225,106.411C346.617,103.249,340.317,104.421,337.155,109.029z"/>
<g>
	<path style="fill:#2488FF;" d="M282.926,504.162c9.223-1.783,11.795-13.987,3.804-18.923c-0.046-0.028-0.092-0.057-0.139-0.084
		c-4.122-2.484-6.886-6.994-6.911-12.155V201.877l-21.562,26.301v243.88H47.245l0.625,4.874
		c1.943,15.148,14.838,27.474,30.111,27.479c50.623,0.014,202.797,0.111,202.49,0C281.297,504.407,282.115,504.319,282.926,504.162z
		"/>
	<path style="fill:#2488FF;" d="M129.099,276.758c-39.058,0-70.834-31.776-70.834-70.834v-78.929h141.668v78.929
		C199.933,244.982,168.157,276.758,129.099,276.758z"/>
</g>
<path style="fill:#D8D7DA;" d="M129.099,256.52L129.099,256.52c-27.943,0-50.596-22.653-50.596-50.596V135.09h101.191v70.834
	C179.694,233.867,157.042,256.52,129.099,256.52z"/>
<g>
	<path style="fill:#898890;" d="M129.099,240.33L129.099,240.33c-27.943,0-50.596-22.653-50.596-50.596v16.191
		c0,27.943,22.653,50.596,50.596,50.596l0,0c27.943,0,50.596-22.653,50.596-50.596v-16.191
		C179.694,217.677,157.042,240.33,129.099,240.33z"/>
	<rect x="78.504" y="135.09" style="fill:#898890;" width="101.191" height="45.536"/>
</g>
<polygon style="fill:#2488FF;" points="43.504,75.388 258.118,75.388 258.118,55.149 51.268,55.149 "/>
<g>
	<rect x="51.268" y="7.589" style="fill:#D8D7DA;" width="206.845" height="47.56"/>
	<rect x="78.504" y="135.09" style="fill:#D8D7DA;" width="101.191" height="30.357"/>
</g>
<path style="fill:#FFFFFF;" d="M397.007,177.904l-12.405-7.974l8.208-12.768l12.405,7.974L397.007,177.904z M370.983,161.174
	l-30.643-19.699l8.208-12.767l30.643,19.699L370.983,161.174z"/>
<path d="M503.913,201.98L355.519,100.153c-8.053-5.525-19.097-3.47-24.622,4.582l-43.584,63.516l6.338,4.349l-27.944,34.264V62.739
	V47.56V0H43.68v53.742L0.405,166.54l39.938,311.358C42.796,497.021,59.328,512,77.981,512h202.49
	c9.734,0,18.859-4.815,24.427-12.884l153.011-213.804l7.001,4.805l43.584-63.517C514.019,218.549,511.963,207.505,503.913,201.98z
	 M58.859,15.179h191.671V47.56H58.859V15.179z M55.398,475.967L15.946,168.404L56.486,62.739h165.709v23.78h15.179v-23.78h13.155
	v162.736v256.702c0,5.321,1.413,10.315,3.874,14.644h-17.028v-21.728h-15.179v21.728H77.981
	C66.817,496.821,56.898,487.66,55.398,475.967z M292.513,490.34l-0.086,0.123c-2.731,3.982-7.201,6.359-11.955,6.359
	c-8.141,0-14.764-6.569-14.764-14.644V230.879l40.503-49.663l11.358,7.794l127.823,87.712L292.513,490.34z M495.979,218.012
	l-34.996,51l-27.396-18.798l-125.169-85.89l34.995-50.999c0.516-0.752,1.239-0.985,1.623-1.055c0.385-0.073,1.143-0.115,1.894,0.401
	l148.393,101.826C496.474,215.285,496.768,216.862,495.979,218.012z"/>
<rect x="194.368" y="24.286" width="15.179" height="15.179"/>
<rect x="164.011" y="24.286" width="15.179" height="15.179"/>
<rect x="224.726" y="24.286" width="15.179" height="15.179"/>
<rect x="72.938" y="24.286" width="15.179" height="15.179"/>
<rect x="103.296" y="24.286" width="15.179" height="15.179"/>
<rect x="133.653" y="24.286" width="15.179" height="15.179"/>
<path d="M70.914,127.501v45.536v32.887c0,32.084,26.101,58.185,58.185,58.185s58.185-26.101,58.185-58.185v-32.887v-45.536H70.914z
	 M86.092,142.68h86.013v15.179H86.092C86.092,157.859,86.092,142.68,86.092,142.68z M172.105,205.924
	c0,23.714-19.292,43.006-43.006,43.006s-43.006-19.292-43.006-43.006v-32.887h86.013V205.924z"/>
<rect x="222.196" y="195.805" width="15.179" height="30.357"/>
<rect x="222.196" y="335.449" width="15.179" height="30.357"/>
<rect x="222.196" y="381.997" width="15.179" height="30.357"/>
<rect x="222.196" y="428.545" width="15.179" height="30.357"/>
<rect x="222.196" y="288.901" width="15.179" height="30.357"/>
<rect x="222.196" y="102.709" width="15.179" height="30.357"/>
<rect x="222.196" y="149.257" width="15.179" height="30.357"/>
<rect x="222.196" y="242.353" width="15.179" height="30.357"/>
<g>
</g>
<g>
</g>
<g>
</g>
<g>
</g>
<g>
</g>
<g>
</g>
<g>
</g>
<g>
</g>
<g>
</g>
<g>
</g>
<g>
</g>
<g>
</g>
<g>
</g>
<g>
</g>
<g>
</g>
</svg>
