<svg xmlns="http://www.w3.org/2000/svg" viewBox="0 0 512 512"><path d="M304.744 171.006l-46.626 57.171V55.149H51.268L8.175 167.472l39.695 309.46c1.943 15.148 14.838 27.479 30.111 27.479h202.49c-.342-.107.353.122 0 0 .346.016-.35 0 0 0 7.328 0 14.068-3.612 18.213-9.654l157.384-219.912-151.324-103.839z" fill="#57a4ff"/><path fill="#2488ff" d="M291.511 186.698l151.787 105.239 12.77-17.093-151.324-103.838z"/><path d="M337.155 109.029l-39.29 57.258 165.081 113.278 39.29-57.258c3.162-4.608 1.989-10.907-2.618-14.069L351.225 106.411c-4.608-3.162-10.908-1.99-14.07 2.618z" fill="#d8d7da"/><path d="M282.926 504.162c9.223-1.783 11.795-13.987 3.804-18.923-.046-.028-.092-.057-.139-.084-4.122-2.484-6.886-6.994-6.911-12.155V201.877l-21.562 26.301v243.88H47.245l.625 4.874c1.943 15.148 14.838 27.474 30.111 27.479 50.623.014 202.797.111 202.49 0a13.231 13.231 0 002.455-.249zM129.099 276.758c-39.058 0-70.834-31.776-70.834-70.834v-78.929h141.668v78.929c0 39.058-31.776 70.834-70.834 70.834z" fill="#2488ff"/><path d="M129.099 256.52c-27.943 0-50.596-22.653-50.596-50.596V135.09h101.191v70.834c0 27.943-22.652 50.596-50.595 50.596z" fill="#d8d7da"/><path d="M129.099 240.33c-27.943 0-50.596-22.653-50.596-50.596v16.191c0 27.943 22.653 50.596 50.596 50.596 27.943 0 50.596-22.653 50.596-50.596v-16.191c-.001 27.943-22.653 50.596-50.596 50.596zM78.504 135.09h101.191v45.536H78.504z" fill="#898890"/><path fill="#2488ff" d="M43.504 75.388h214.614V55.149H51.268z"/><path d="M51.268 7.589h206.845v47.56H51.268zM78.504 135.09h101.191v30.357H78.504z" fill="#d8d7da"/><path d="M397.007 177.904l-12.405-7.974 8.208-12.768 12.405 7.974-8.208 12.768zm-26.024-16.73l-30.643-19.699 8.208-12.767 30.643 19.699-8.208 12.767z" fill="#fff"/><path d="M503.913 201.98L355.519 100.153c-8.053-5.525-19.097-3.47-24.622 4.582l-43.584 63.516 6.338 4.349-27.944 34.264V0H43.68v53.742L.405 166.54l39.938 311.358C42.796 497.021 59.328 512 77.981 512h202.49c9.734 0 18.859-4.815 24.427-12.884l153.011-213.804 7.001 4.805 43.584-63.517c5.525-8.051 3.469-19.095-4.581-24.62zM58.859 15.179H250.53V47.56H58.859V15.179zm-3.461 460.788L15.946 168.404l40.54-105.665h165.709v23.78h15.179v-23.78h13.155v419.438a29.536 29.536 0 003.874 14.644h-17.028v-21.728h-15.179v21.728H77.981c-11.164 0-21.083-9.161-22.583-20.854zm237.115 14.373l-.086.123c-2.731 3.982-7.201 6.359-11.955 6.359-8.141 0-14.764-6.569-14.764-14.644V230.879l40.503-49.663 11.358 7.794 127.823 87.712L292.513 490.34zm203.466-272.328l-34.996 51-27.396-18.798-125.169-85.89 34.995-50.999a2.512 2.512 0 011.623-1.055 2.51 2.51 0 011.894.401l148.393 101.826a2.53 2.53 0 01.656 3.515z"/><path d="M194.368 24.286h15.179v15.179h-15.179zm-30.357 0h15.179v15.179h-15.179zm60.715 0h15.179v15.179h-15.179zm-151.788 0h15.179v15.179H72.938zm30.358 0h15.179v15.179h-15.179zm30.357 0h15.179v15.179h-15.179zM70.914 127.501v78.423c0 32.084 26.101 58.185 58.185 58.185s58.185-26.101 58.185-58.185v-78.423H70.914zm15.178 15.179h86.013v15.179H86.092V142.68zm86.013 63.244c0 23.714-19.292 43.006-43.006 43.006s-43.006-19.292-43.006-43.006v-32.887h86.013v32.887zm50.091-10.119h15.179v30.357h-15.179zm0 139.644h15.179v30.357h-15.179zm0 46.548h15.179v30.357h-15.179zm0 46.548h15.179v30.357h-15.179zm0-139.644h15.179v30.357h-15.179zm0-186.192h15.179v30.357h-15.179zm0 46.548h15.179v30.357h-15.179zm0 93.096h15.179v30.357h-15.179z"/></svg>