<svg xmlns="http://www.w3.org/2000/svg" viewBox="0 0 612 612" width="512" height="512"><path d="M571.405 279.306h-.931v-82.384c0-37.807-30.757-68.566-68.563-68.566h-39.265L404.934 14.06a15.32 15.32 0 00-20.704-6.707L150.013 128.358h-81.45C30.757 128.358 0 159.118 0 196.925V537.79c0 37.807 30.757 68.566 68.563 68.566H501.91c37.806 0 68.563-30.76 68.563-68.566v-82.384h.931c22.384 0 40.595-18.211 40.595-40.595V319.9c.001-22.38-18.21-40.594-40.594-40.594zM384.557 41.673l43.769 86.685H216.763l167.794-86.685zm196.806 373.139c0 5.49-4.467 9.957-9.957 9.957H397.027c-5.49 0-9.957-4.467-9.957-9.957V319.9c0-5.49 4.467-9.957 9.957-9.957h174.379c5.49 0 9.957 4.467 9.957 9.957v94.912zm-89.897-47.454c0 21.091-17.157 38.245-38.245 38.245-21.088 0-38.242-17.157-38.242-38.245s17.157-38.245 38.242-38.245c21.089-.003 38.245 17.154 38.245 38.245z" fill="#e44c65"/></svg>