<svg xmlns="http://www.w3.org/2000/svg" viewBox="0 0 256 256" width="50" height="50"><path d="M227.21 30.65c-2.494.11-4.921.803-7.11 1.68-2.167.87-14.64 6.195-33.06 14.07s-42.364 18.13-66.1 28.3c-47.471 20.338-94.12 40.35-94.12 40.35l.34-.13s-2.815.941-5.67 2.93c-1.427.995-2.963 2.278-4.22 4.15-1.257 1.872-2.176 4.524-1.83 7.33 1.217 9.855 11.43 12.65 11.43 12.65l.04.02 45.58 15.6c1.162 3.877 13.825 46.14 16.61 55.09 1.538 4.948 2.978 7.803 4.48 9.75.752.975 1.54 1.729 2.41 2.28.346.22.71.384 1.07.53.008.004.012-.003.02 0 .044.02.086.021.13.04l-.12-.03c.084.034.166.09.25.12.162.057.262.055.47.1 5.22 1.823 9.54-1.56 9.54-1.56l.18-.14 28-25.97 45.44 35.43.57.26c7.954 3.532 15.147 1.561 19.13-1.68 3.983-3.241 5.55-7.42 5.55-7.42l.17-.44 33.39-174.03c.854-3.893.976-7.259.17-10.3-.806-3.041-2.764-5.685-5.22-7.15-2.457-1.465-5.026-1.94-7.52-1.83zm.27 10.41c1.013-.047 1.763.069 2 .21.237.141.343.123.57.98.227.857.35 2.664-.27 5.49l-.02.06-33.2 173.02c-.079.174-.77 1.775-2.35 3.06-1.611 1.311-3.404 2.335-8.16.34l-49.69-38.75-1.4-1.1-.03.03-14.86-11.15L203.58 75a5.12 5.12 0 00-6.74-7.58L76 147.98l-45.65-15.63s-4.533-2.522-4.75-4.28c-.012-.097-.065-.009.17-.36.236-.35.828-.942 1.57-1.46 1.485-1.034 3.18-1.66 3.18-1.66l.17-.06.17-.07s46.651-20.012 94.12-40.35c23.734-10.168 47.675-20.416 66.09-28.29 18.41-7.871 31.714-13.537 32.84-13.99a11.148 11.148 0 013.57-.77zM172.1 96.22l-63.33 74.51-.03.03a5.119 5.119 0 00-.28.37c-.1.139-.194.282-.28.43a5.121 5.121 0 00-.67 1.97v.04l-8.25 37.1c-.137-.4-.233-.548-.38-1.02v-.01c-2.62-8.42-14.567-48.278-16.22-53.79zm-56.18 86.72l11.38 8.54-16.72 15.5z" fill="#fff" font-family="none" font-weight="none" font-size="none" text-anchor="none"/></svg>