<svg xmlns="http://www.w3.org/2000/svg" viewBox="0 0 52.966 52.966" width="512" height="512"><g fill="#FFF"><path d="M28.983 20h-6v-6a1 1 0 00-2 0v6h-6a1 1 0 000 2h6v6a1 1 0 002 0v-6h6a1 1 0 000-2z"/><path d="M51.704 51.273L36.845 35.82c3.79-3.801 6.138-9.041 6.138-14.82 0-11.58-9.42-21-21-21s-21 9.42-21 21 9.42 21 21 21c5.083 0 9.748-1.817 13.384-4.832l14.895 15.491a.998.998 0 001.414.028 1 1 0 00.028-1.414zM2.983 21c0-10.477 8.523-19 19-19s19 8.523 19 19-8.523 19-19 19-19-8.523-19-19z"/></g></svg>