<?xml version="1.0"?>
<svg xmlns="http://www.w3.org/2000/svg" height="512px" viewBox="-30 0 511 512" width="512px"><path d="m383.574219 454.929688c-1.878907-1.875-4.421875-2.929688-7.074219-2.929688h-10v-21.71875c11.640625-4.128906 20-15.246094 20-28.28125 0-16.542969-13.457031-30-30-30h-13.808594c64.980469-31.949219 109.808594-98.835938 109.808594-176 0-108.074219-87.925781-196-196-196-65.601562 0-123.765625 32.410156-159.359375 82.046875l-1.410156-.207031s-16.203125-33.375-16.234375-33.433594c-3.539063-7.292969-14.453125-7.285156-17.992188 0l-16.230468 33.433594-36.234376 5.351562c-3.746093.550782-6.859374 3.175782-8.039062 6.773438-1.183594 3.597656-.226562 7.554687 2.460938 10.222656l26.316406 26.070312s-6.207032 36.785157-6.21875 36.851563c-1.34375 7.960937 7.445312 14.292969 14.570312 10.484375l23.75-12.6875c-1.023437 9.660156-1.378906 22.453125-1.378906 31.09375 0 77.164062 44.832031 144.050781 109.8125 176h-13.8125c-16.542969 0-30 13.457031-30 30 0 13.035156 8.363281 24.152344 20 28.28125v21.71875h-10c-2.652344 0-5.195312 1.054688-7.070312 2.929688 0 0-39.953126 39.953124-40 40-6.078126 6.078124-1.738282 17.070312 7.070312 17.070312h320c8.710938 0 13.238281-10.902344 7.074219-17.070312zm-336.035157-335.230469-15.792968-15.644531 21.675781-3.203126c3.269531-.484374 6.089844-2.550781 7.535156-5.523437l9.542969-19.660156 9.546875 19.660156c1.441406 2.972656 4.265625 5.039063 7.535156 5.523437l21.675781 3.203126-15.796874 15.644531c-2.308594 2.292969-3.363282 5.5625-2.820313 8.769531l3.691406 21.886719-19.117187-10.214844c-2.925782-1.5625-6.503906-1.5625-9.425782 0l-19.121093 10.214844 3.691406-21.886719c.542969-3.207031-.507813-6.476562-2.820313-8.769531zm32.960938 76.300781c0-9.902344.84375-19.605469 2.421875-29.0625 0 0 19.898437 10.632812 19.949219 10.65625 7.136718 3.816406 15.917968-2.511719 14.570312-10.484375l-6.21875-36.851563s26.261719-26.019531 26.316406-26.070312c5.730469-5.679688 2.394532-15.820312-5.578124-16.996094l-12.230469-1.808594c32.292969-39.851562 81.597656-65.382812 136.769531-65.382812 97.046875 0 176 78.953125 176 176s-78.953125 176-176 176-176-78.953125-176-176zm76 196h200c5.515625 0 10 4.484375 10 10s-4.484375 10-10 10h-200c-5.511719 0-10-4.484375-10-10s4.488281-10 10-10zm10 40h180v20h-180zm-45.855469 60 20-20h231.714844l20 20zm0 0" fill="#FFFFFF"/><path d="m256.929688 40c-5.5 0-9.988282 4.46875-10.007813 9.96875-.019531 5.402344 4.613281 10.011719 9.976563 10.03125l.03125-.050781v.050781c5.488281 0 9.980468-4.46875 10-9.96875.019531-5.367188-4.679688-10.011719-10-10.03125zm0 0" fill="#FFFFFF"/><path d="m402.5 206c5.511719 0 10-4.488281 10-10 0-17.460938-2.871094-34.609375-8.519531-50.960938-10.875-31.464843-32.074219-59.109374-59.519531-77.898437-13.921876-9.511719-29.171876-16.660156-45.332032-21.242187-5.160156-1.460938-10.847656 1.632812-12.347656 6.890624-1.5 5.308594 1.589844 10.851563 6.898438 12.351563 58.199218 16.507813 98.839843 70.320313 98.820312 130.859375 0 5.511719 4.492188 10 10 10zm0 0" fill="#FFFFFF"/><path d="m237.921875 194.78125-29.363281-4.21875s-13.09375-26.222656-13.109375-26.253906c-3.613281-7.230469-14.289063-7.21875-17.894531 0l-13.109376 26.253906s-29.328124 4.214844-29.367187 4.21875c-8.007813 1.148438-11.34375 11.480469-5.515625 17.101562l21.179688 20.402344s-4.988282 28.742188-4.996094 28.78125c-1.378906 7.953125 7.308594 14.300782 14.464844 10.582032l26.289062-13.660157s26.253906 13.640625 26.289062 13.660157c7.171876 3.726562 15.839844-2.660157 14.464844-10.582032l-4.992187-28.78125s21.148437-20.378906 21.179687-20.402344c5.773438-5.566406 2.40625-15.964843-5.519531-17.101562zm-33.359375 26.78125c-2.390625 2.304688-3.480469 5.640625-2.914062 8.910156l2.449218 14.117188s-12.976562-6.742188-12.984375-6.746094c-2.777343-1.445312-6.363281-1.484375-9.222656 0l-12.984375 6.746094 2.449219-14.117188c.566406-3.269531-.527344-6.605468-2.914063-8.910156l-10.273437-9.894531 14.304687-2.054688c3.246094-.464843 6.058594-2.496093 7.523438-5.429687l6.503906-13.023438 6.503906 13.023438c1.46875 2.9375 4.277344 4.964844 7.527344 5.433594l14.300781 2.054687zm0 0" fill="#FFFFFF"/></svg>
