<svg xmlns="http://www.w3.org/2000/svg" height="512" viewBox="-30 0 511 512" width="512"><path d="M383.574 454.93A10.015 10.015 0 00376.5 452h-10v-21.719c11.64-4.129 20-15.246 20-28.281 0-16.543-13.457-30-30-30h-13.809c64.98-31.95 109.809-98.836 109.809-176 0-108.074-87.926-196-196-196-65.602 0-123.766 32.41-159.36 82.047l-1.41-.207S79.527 48.465 79.496 48.406c-3.539-7.293-14.453-7.285-17.992 0L45.274 81.84 9.038 87.19a10.003 10.003 0 00-5.578 16.996l26.316 26.07-6.218 36.852c-1.344 7.961 7.445 14.293 14.57 10.485l23.75-12.688C60.855 174.566 60.5 187.36 60.5 196c0 77.164 44.832 144.05 109.813 176H156.5c-16.543 0-30 13.457-30 30 0 13.035 8.363 24.152 20 28.281V452h-10a10 10 0 00-7.07 2.93l-40 40C83.352 501.008 87.69 512 96.5 512h320c8.71 0 13.238-10.902 7.074-17.07zM47.54 119.7l-15.793-15.645 21.676-3.203a10.009 10.009 0 007.535-5.524l9.543-19.66 9.547 19.66a10.002 10.002 0 007.535 5.524l21.676 3.203-15.797 15.644a10.008 10.008 0 00-2.82 8.77l3.691 21.886-19.117-10.214a10.063 10.063 0 00-9.426 0l-19.121 10.214 3.691-21.886a9.997 9.997 0 00-2.82-8.77zM80.5 196c0-9.902.844-19.605 2.422-29.063 0 0 19.898 10.633 19.95 10.657 7.136 3.816 15.917-2.512 14.57-10.485l-6.22-36.851s26.262-26.02 26.317-26.07c5.73-5.68 2.395-15.82-5.578-16.997l-12.23-1.808C152.022 45.53 201.327 20 256.5 20c97.047 0 176 78.953 176 176s-78.953 176-176 176-176-78.953-176-176zm76 196h200c5.516 0 10 4.484 10 10s-4.484 10-10 10h-200c-5.512 0-10-4.484-10-10s4.488-10 10-10zm10 40h180v20h-180zm-45.855 60l20-20h231.714l20 20zm0 0" fill="#FFF"/><path d="M256.93 40c-5.5 0-9.989 4.469-10.008 9.969-.02 5.402 4.613 10.011 9.976 10.031l.032-.05V60c5.488 0 9.98-4.469 10-9.969.02-5.367-4.68-10.011-10-10.031zM402.5 206c5.512 0 10-4.488 10-10 0-17.46-2.871-34.61-8.52-50.96-10.875-31.466-32.074-59.11-59.52-77.9-13.92-9.511-29.17-16.66-45.331-21.242-5.16-1.46-10.848 1.633-12.348 6.891-1.5 5.309 1.59 10.852 6.899 12.352C351.879 81.648 392.52 135.46 392.5 196c0 5.512 4.492 10 10 10zm-164.578-11.219l-29.363-4.219-13.11-26.253c-3.613-7.23-14.289-7.22-17.894 0l-13.11 26.254s-29.328 4.214-29.367 4.218c-8.008 1.149-11.344 11.48-5.516 17.102l21.18 20.402s-4.988 28.742-4.996 28.781c-1.379 7.954 7.309 14.301 14.465 10.582l26.289-13.66s26.254 13.64 26.29 13.66c7.17 3.727 15.839-2.66 14.464-10.582l-4.992-28.78s21.148-20.38 21.18-20.403c5.773-5.567 2.406-15.965-5.52-17.102zm-33.36 26.781a10.001 10.001 0 00-2.914 8.91l2.45 14.118-12.985-6.746c-2.777-1.446-6.363-1.485-9.222 0l-12.985 6.746 2.45-14.117a10.012 10.012 0 00-2.915-8.91l-10.273-9.895 14.305-2.055a9.997 9.997 0 007.523-5.43l6.504-13.023 6.504 13.024a10.008 10.008 0 007.527 5.433l14.301 2.055zm0 0" fill="#FFF"/></svg>