<svg xmlns="http://www.w3.org/2000/svg" width="512" height="512"><path d="M482 287c0-24.813-20.187-45-45-45h-66.833c8.28-22.387 13.415-48.978 16.417-69.121a70.494 70.494 0 00-16.327-56.473A70.25 70.25 0 00317 92c-8.284 0-15 6.716-15 15 0 36.237-20.825 90.941-45.128 103.126-27.356 13.713-81.172 28.91-91.891 31.874H15.001c-8.284 0-15 6.716-15 15v210C0 475.284 6.716 482 15 482h45v15c0 8.284 6.716 15 15 15h62c18.321 0 34.108-11.011 41.122-26.758l105.24 26.31c1.19.297 2.412.448 3.638.448h90c24.813 0 45-20.187 45-45a44.773 44.773 0 00-3.164-16.579C437.924 445.211 452 427.718 452 407a44.773 44.773 0 00-3.164-16.579C467.924 385.211 482 367.718 482 347c0-11.515-4.347-22.033-11.486-30 7.139-7.967 11.486-18.485 11.486-30zM59.999 452h-30V272h30v180zm92 15c0 8.271-6.729 15-15 15h-47V272h62v195zM347 332h90c8.271 0 15 6.729 15 15s-6.729 15-15 15h-90c-8.284 0-15 6.716-15 15s6.716 15 15 15h60c8.271 0 15 6.729 15 15s-6.729 15-15 15h-60c-8.284 0-15 6.716-15 15s6.716 15 15 15h30c8.271 0 15 6.729 15 15s-6.729 15-15 15h-88.153L182 455.289V268.376c20.238-5.811 63.165-18.822 88.316-31.431 34.45-17.271 55.545-71.899 60.535-112.494a40.296 40.296 0 0116.684 11.542 40.515 40.515 0 019.378 32.462c-7.105 47.654-16.018 67.215-23.329 81.836A15 15 0 00347 272h90c8.271 0 15 6.729 15 15s-6.729 15-15 15h-90c-8.284 0-15 6.716-15 15s6.716 15 15 15zM332 0c-8.284 0-15 6.716-15 15v32c0 8.284 6.716 15 15 15s15-6.716 15-15V15c0-8.284-6.716-15-15-15zm-84.853 75.934l-21.213-21.213c-5.857-5.858-15.355-5.858-21.213 0-5.858 5.858-5.858 15.355 0 21.213l21.213 21.213c5.857 5.858 15.356 5.858 21.213 0 5.858-5.858 5.858-15.355 0-21.213z" fill="#FFF"/><path d="M196.999 167h-30c-8.284 0-15 6.716-15 15s6.716 15 15 15h30c8.284 0 15-6.716 15-15s-6.716-15-15-15zM497 167h-30c-8.284 0-15 6.716-15 15s6.716 15 15 15h30c8.284 0 15-6.716 15-15s-6.716-15-15-15zM459.279 54.721c-5.857-5.858-15.355-5.858-21.213 0l-21.213 21.213c-5.858 5.858-5.858 15.355 0 21.213 5.857 5.858 15.356 5.858 21.213 0l21.213-21.213c5.858-5.858 5.858-15.355 0-21.213z" fill="#FFF"/></svg>