<svg xmlns="http://www.w3.org/2000/svg" viewBox="0 0 480 480" width="512" height="512"><path d="M285.966 273.369c36.162-25.386 44.897-75.281 19.51-111.442s-75.281-44.897-111.442-19.51-44.897 75.281-19.51 111.442a79.995 79.995 0 0019.51 19.51c-42.717 7.343-73.96 44.35-74.034 87.694V472a7.998 7.998 0 007.996 8H352a7.998 7.998 0 008-7.996V361.062c-.075-43.343-31.317-80.35-74.034-87.693zM176 208c0-35.346 28.654-64 64-64 35.346 0 64 28.654 64 64 0 35.346-28.654 64-64 64-35.329-.04-63.96-28.671-64-64zm168 256H136V361.062c.045-40.332 32.73-73.017 73.063-73.062h61.875c40.332.045 73.017 32.73 73.062 73.062V464zM232 48h16v32h-16zm79.03 42.33l22.628-22.626 11.313 11.313-22.627 22.628zM408 464h32v16h-32zm0-80h32v16h-32zm0-80h32v16h-32zm-9.689-74.543l30.355-10.124 5.063 15.177-30.356 10.125zm-24.855-82.961l30.355-10.124 5.062 15.177-30.355 10.125zM135.035 79.034l11.316-11.312 22.624 22.63-11.316 11.312zM40 464h32v16H40zm0-80h32v16H40zm0-80h32v16H40zm6.29-69.483l5.058-15.179 30.358 10.115-5.057 15.18zm24.816-82.909l5.06-15.18 30.36 10.122-5.062 15.18zM472 32c-13.249-.014-23.986-10.751-24-24a8 8 0 00-16 0c-.014 13.249-10.751 23.986-24 24a8 8 0 000 16c13.249.014 23.986 10.751 24 24a8 8 0 0016 0c.014-13.249 10.751-23.986 24-24a8 8 0 000-16zm-32 16.023A40.338 40.338 0 00431.977 40 40.338 40.338 0 00440 31.977 40.338 40.338 0 00448.023 40 40.338 40.338 0 00440 48.023zM72 32c-13.249-.014-23.986-10.751-24-24a8 8 0 00-16 0c-.014 13.249-10.751 23.986-24 24a8 8 0 000 16c13.249.014 23.986 10.751 24 24a8 8 0 0016 0c.014-13.249 10.751-23.986 24-24a8 8 0 000-16zM40 48.023A40.338 40.338 0 0031.977 40 40.338 40.338 0 0040 31.977 40.338 40.338 0 0048.023 40 40.338 40.338 0 0040 48.023z" fill="#FFF"/></svg>